<svg aria-hidden="true" style="position: absolute; width: 0; height: 0; overflow: hidden;" version="1.1" xmlns="http://www.w3.org/2000/svg" xmlns:xlink="http://www.w3.org/1999/xlink">
<defs>
<symbol id="icon-twitter" viewBox="0 0 40 32">
<path d="M38.142 4.485c-1.387 0.606-2.878 1.015-4.443 1.199 1.597-0.943 2.824-2.435 3.401-4.214-1.495 0.873-3.15 1.507-4.913 1.848-1.411-1.48-3.422-2.405-5.647-2.405-4.273 0-7.736 3.41-7.736 7.617 0 0.597 0.068 1.178 0.2 1.736-6.43-0.318-12.13-3.35-15.946-7.959-0.666 1.125-1.048 2.433-1.048 3.829 0 2.643 1.366 4.974 3.442 6.34-1.268-0.040-2.461-0.382-3.504-0.953-0.001 0.032-0.001 0.064-0.001 0.096 0 3.691 2.667 6.769 6.206 7.469-0.649 0.174-1.333 0.267-2.038 0.267-0.499 0-0.983-0.048-1.456-0.137 0.985 3.026 3.841 5.228 7.227 5.29-2.648 2.043-5.983 3.261-9.608 3.261-0.624 0-1.24-0.036-1.845-0.107 3.424 2.161 7.49 3.422 11.859 3.422 14.23 0 22.011-11.607 22.011-21.672 0-0.33-0.008-0.659-0.023-0.985 1.512-1.074 2.823-2.415 3.861-3.943z"></path>
</symbol>
<symbol id="icon-discord-2" viewBox="0 0 27 32">
<path d="M17.614 15.245c0 0.922-0.68 1.677-1.541 1.677-0.846 0-1.541-0.756-1.541-1.677s0.68-1.677 1.541-1.677c0.861 0 1.541 0.756 1.541 1.677zM10.557 13.567c-0.861 0-1.541 0.756-1.541 1.677s0.695 1.677 1.541 1.677c0.861 0 1.541-0.756 1.541-1.677 0.015-0.922-0.68-1.677-1.541-1.677zM26.515 4.002v27.109c-3.807-3.364-2.589-2.251-7.012-6.362l0.801 2.795h-17.136c-1.708 0-3.098-1.39-3.098-3.113v-20.43c0-1.723 1.39-3.113 3.098-3.113h20.249c1.708 0 3.098 1.39 3.098 3.113zM22.208 18.327c0-4.866-2.176-8.81-2.176-8.81-2.176-1.632-4.246-1.587-4.246-1.587l-0.212 0.242c2.569 0.786 3.763 1.919 3.763 1.919-3.589-1.967-7.806-1.968-11.288-0.438-0.559 0.257-0.892 0.438-0.892 0.438s1.254-1.194 3.974-1.98l-0.151-0.181c0 0-2.070-0.045-4.246 1.587 0 0-2.176 3.944-2.176 8.81 0 0 1.269 2.191 4.609 2.297 0 0 0.559-0.68 1.012-1.254-1.919-0.574-2.644-1.783-2.644-1.783 0.222 0.156 0.589 0.357 0.62 0.378 2.551 1.428 6.174 1.896 9.429 0.529 0.529-0.197 1.118-0.484 1.738-0.892 0 0-0.756 1.239-2.735 1.798 0.453 0.574 0.997 1.224 0.997 1.224 3.339-0.106 4.624-2.297 4.624-2.297z"></path>
</symbol>
<symbol id="icon-medium" viewBox="0 0 40 32">
<path d="M6.385 7.494c0.045-0.442-0.127-0.884-0.457-1.183l-3.377-4.073v-0.606h10.498l8.117 17.799 7.136-17.799h10.011v0.606l-2.89 2.771c-0.247 0.187-0.374 0.502-0.322 0.809v20.367c-0.053 0.307 0.075 0.622 0.322 0.809l2.823 2.771v0.606h-14.205v-0.606l2.928-2.838c0.285-0.285 0.285-0.374 0.285-0.809v-16.459l-8.139 20.659h-1.101l-9.465-20.659v13.845c-0.082 0.584 0.112 1.168 0.524 1.587l3.804 4.613v0.606h-10.783v-0.599l3.804-4.62c0.404-0.419 0.592-1.011 0.487-1.587v-16.009z"></path>
</symbol>
<symbol id="icon-linkedin" viewBox="0 0 32 32">
<path d="M7.428 31.477h-6.424v-20.687h6.424v20.687zM4.212 7.968c-2.054 0-3.72-1.701-3.72-3.756 0-0.987 0.392-1.933 1.090-2.631s1.644-1.090 2.631-1.090c0.987 0 1.933 0.392 2.631 1.090s1.090 1.644 1.090 2.631c0 2.054-1.667 3.756-3.72 3.756zM31.471 31.477h-6.41v-10.070c0-2.4-0.048-5.478-3.34-5.478-3.34 0-3.852 2.607-3.852 5.305v10.243h-6.417v-20.687h6.161v2.822h0.090c0.858-1.625 2.953-3.341 6.078-3.341 6.501 0 7.697 4.281 7.697 9.842v11.364h-0.007z"></path>
</symbol>
<symbol id="icon-moonpay-color" viewBox="0 0 32 32">
<path fill="#7d00ff" style="fill: var(--color1, #7d00ff)" d="M26.633 9.678c0.957 0 1.893-0.284 2.688-0.816s1.416-1.287 1.782-2.172c0.366-0.884 0.462-1.857 0.275-2.796s-0.648-1.801-1.324-2.478-1.539-1.138-2.478-1.324c-0.939-0.187-1.912-0.091-2.796 0.275s-1.64 0.987-2.172 1.782-0.816 1.731-0.816 2.688c0 0.636 0.125 1.265 0.368 1.852s0.6 1.121 1.049 1.57c0.449 0.449 0.983 0.806 1.57 1.049s1.216 0.368 1.852 0.368zM11.795 31.472c-2.333 0-4.613-0.692-6.553-1.988s-3.452-3.138-4.344-5.294-1.126-4.527-0.671-6.815c0.455-2.288 1.579-4.39 3.228-6.039s3.751-2.773 6.039-3.228c2.288-0.455 4.66-0.222 6.815 0.671s3.997 2.405 5.294 4.344c1.296 1.94 1.988 4.22 1.988 6.553 0 1.549-0.305 3.083-0.898 4.514s-1.462 2.731-2.557 3.827c-1.095 1.095-2.396 1.964-3.827 2.557s-2.965 0.898-4.514 0.898z"></path>
</symbol>
<symbol id="icon-avalanche" viewBox="0 0 32 32">
<path fill="#fff" style="fill: var(--color2, #fff)" d="M6.106 5.489h19.745v17.957h-19.745v-17.957z"></path>
<path fill="#e84142" style="fill: var(--color3, #e84142)" d="M31.968 16c0 8.825-7.154 15.979-15.979 15.979s-15.979-7.154-15.979-15.979c0-8.825 7.154-15.979 15.979-15.979s15.979 7.154 15.979 15.979zM11.461 22.359c0.73 0 1.095 0 1.421-0.090 0.357-0.106 0.683-0.294 0.954-0.554 0.249-0.237 0.428-0.551 0.783-1.171l4.032-7.128c0.357-0.624 0.534-0.938 0.612-1.268 0.086-0.357 0.086-0.734 0-1.091-0.078-0.327-0.256-0.639-0.608-1.254l-1.582-2.762c-0.326-0.573-0.491-0.86-0.699-0.966-0.224-0.114-0.491-0.114-0.714 0-0.208 0.106-0.373 0.393-0.699 0.966l-7.657 13.496c-0.322 0.565-0.483 0.848-0.471 1.079 0.016 0.251 0.145 0.479 0.357 0.616 0.196 0.126 0.518 0.126 1.17 0.126h3.101zM19.293 22.359h4.443c0.656 0 0.985 0 1.182-0.129 0.212-0.137 0.345-0.369 0.357-0.62 0.011-0.224-0.146-0.496-0.455-1.028-0.011-0.018-0.021-0.037-0.032-0.055l-2.251-3.85c-0.313-0.529-0.471-0.796-0.673-0.899-0.224-0.114-0.487-0.114-0.71 0-0.204 0.106-0.369 0.385-0.695 0.946l-2.225 3.821c-0.325 0.56-0.487 0.84-0.475 1.070 0.016 0.251 0.145 0.483 0.357 0.62 0.192 0.126 0.522 0.126 1.178 0.126z"></path>
</symbol>
<symbol id="icon-binance" viewBox="0 0 32 32">
<path fill="#f3ba2f" style="fill: var(--color4, #f3ba2f)" d="M9.468 13.53l6.013-6.013 6.016 6.016 3.499-3.499-9.515-9.515-9.512 9.512 3.499 3.499z"></path>
<path fill="#f3ba2f" style="fill: var(--color4, #f3ba2f)" d="M6.998 16l-3.499-3.499-3.499 3.499 3.499 3.499 3.499-3.499z"></path>
<path fill="#f3ba2f" style="fill: var(--color4, #f3ba2f)" d="M9.468 18.471l6.013 6.013 6.016-6.016 3.501 3.497-0.002 0.002-9.515 9.515-9.517-9.517 3.504-3.494z"></path>
<path fill="#f3ba2f" style="fill: var(--color4, #f3ba2f)" d="M27.464 19.5l3.499-3.499-3.499-3.499-3.499 3.499 3.499 3.499z"></path>
<path fill="#f3ba2f" style="fill: var(--color4, #f3ba2f)" d="M19.030 15.998h0.001l-3.55-3.55-3.552 3.552 0.005 0.005 3.547 3.547 3.552-3.552-0.003-0.002z"></path>
</symbol>
<symbol id="icon-ethereum" viewBox="0 0 21 32">
<path fill="#343434" style="fill: var(--color5, #343434)" d="M10.048 1.532l-0.192 0.651v18.89l0.192 0.191 8.768-5.183-8.768-14.549z"></path>
<path fill="#8c8c8c" style="fill: var(--color6, #8c8c8c)" d="M10.045 1.532l-8.768 14.549 8.768 5.183v-19.732z"></path>
<path fill="#3c3c3b" style="fill: var(--color7, #3c3c3b)" d="M10.042 22.928l-0.108 0.132v6.729l0.108 0.315 8.774-12.356-8.774 5.18z"></path>
<path fill="#8c8c8c" style="fill: var(--color6, #8c8c8c)" d="M10.045 30.104v-7.176l-8.768-5.18 8.768 12.356z"></path>
<path fill="#141414" style="fill: var(--color8, #141414)" d="M10.042 21.265l8.768-5.183-8.768-3.986v9.168z"></path>
<path fill="#393939" style="fill: var(--color9, #393939)" d="M1.277 16.082l8.768 5.183v-9.168l-8.768 3.985z"></path>
</symbol>
<symbol id="icon-moonpay" viewBox="0 0 32 32">
<path d="M26.327 10.32c0.946 0 1.871-0.281 2.658-0.806s1.4-1.273 1.762-2.147c0.362-0.874 0.457-1.836 0.272-2.764s-0.64-1.78-1.309-2.449c-0.669-0.669-1.521-1.125-2.449-1.309s-1.89-0.090-2.764 0.272c-0.874 0.362-1.621 0.975-2.147 1.762s-0.806 1.711-0.806 2.658c0 0.628 0.124 1.25 0.364 1.831s0.593 1.108 1.037 1.552c0.444 0.444 0.971 0.797 1.552 1.037s1.202 0.364 1.831 0.364zM11.66 31.864c-2.306 0-4.56-0.684-6.478-1.965s-3.412-3.102-4.294-5.233c-0.882-2.131-1.113-4.475-0.663-6.737s1.56-4.339 3.191-5.97 3.708-2.741 5.97-3.191c2.262-0.45 4.606-0.219 6.737 0.664s3.952 2.377 5.233 4.294c1.281 1.917 1.965 4.172 1.965 6.478 0 1.531-0.302 3.048-0.887 4.462s-1.445 2.7-2.528 3.783c-1.083 1.083-2.368 1.941-3.783 2.527s-2.931 0.888-4.462 0.888z"></path>
</symbol>
<symbol id="icon-pen" viewBox="0 0 32 32">
<path d="M30.828 3.516l-2.344-2.344c-0.781-0.781-1.805-1.172-2.828-1.172s-2.047 0.391-2.828 1.171l-4.242 4.242-1.414-1.414c-0.781-0.781-2.047-0.781-2.828 0l-8.132 8.133c-0.195 0.195-0.195 0.512 0 0.707l0.707 0.707c0.195 0.195 0.512 0.195 0.707 0l8.132-8.132 1.414 1.414-11.298 11.299c-3.281 3.281-5.348 7.581-5.861 12.193l-0.002 0.014c-0.099 0.898 0.609 1.666 1.488 1.666 0.358 0 6.941-0.437 12.377-5.872l16.955-16.955c1.562-1.563 1.562-4.095-0.001-5.657zM12.46 24.714c-2.812 2.812-6.495 4.651-10.381 5.212 0.571-3.915 2.406-7.582 5.209-10.385l11.298-11.298 5.174 5.173-11.299 11.299zM29.414 7.759l-4.242 4.243-5.173-5.173 4.242-4.242c0.781-0.781 2.046-0.782 2.828 0l2.344 2.344c0.782 0.781 0.782 2.046 0.001 2.829z"></path>
</symbol>
<symbol id="icon-ondefy" viewBox="0 0 32 32">
<path d="M16 0c-1.281 0-2.526 0.151-3.72 0.435v0c-7.043 1.677-12.281 8.009-12.281 15.565 0 7.557 5.238 13.889 12.281 15.566v-0c1.194 0.284 2.439 0.434 3.719 0.434 8.836 0 16-7.164 16-16.001s-7.163-15.999-16-15.999zM12.281 31.357v-4.71c-5.833-0.056-10.542-4.802-10.542-10.647s4.709-10.59 10.542-10.646v-4.71c6.644 1.946 11.496 8.085 11.496 15.356s-4.852 13.412-11.496 15.358z"></path>
</symbol>
<symbol id="icon-metamask" viewBox="0 0 32 32">
<path fill="#e2761b" style="fill: var(--color10, #e2761b)" d="M30.406 1.167l-12.486 9.274 2.309-5.471z"></path>
<path fill="#e4761b" style="fill: var(--color11, #e4761b)" d="M1.581 1.167l12.386 9.362-2.196-5.559z"></path>
<path fill="#e4761b" style="fill: var(--color11, #e4761b)" d="M25.914 22.664l-3.325 5.095 7.115 1.958 2.045-6.94z"></path>
<path fill="#e4761b" style="fill: var(--color11, #e4761b)" d="M0.264 22.776l2.033 6.94 7.115-1.958-3.325-5.095z"></path>
<path fill="#e4761b" style="fill: var(--color11, #e4761b)" d="M9.010 14.055l-1.983 2.999 7.065 0.314-0.251-7.592z"></path>
<path fill="#e4761b" style="fill: var(--color11, #e4761b)" d="M22.977 14.055l-4.894-4.367-0.163 7.68 7.053-0.314z"></path>
<path fill="#e4761b" style="fill: var(--color11, #e4761b)" d="M9.412 27.758l4.242-2.071-3.664-2.861z"></path>
<path fill="#e4761b" style="fill: var(--color11, #e4761b)" d="M18.334 25.688l4.254 2.071-0.59-4.932z"></path>
<path fill="#d7c1b3" style="fill: var(--color12, #d7c1b3)" d="M22.588 27.758l-4.254-2.071 0.339 2.773-0.038 1.167z"></path>
<path fill="#d7c1b3" style="fill: var(--color12, #d7c1b3)" d="M9.412 27.758l3.953 1.87-0.025-1.167 0.314-2.773z"></path>
<path fill="#233447" style="fill: var(--color13, #233447)" d="M13.427 20.995l-3.539-1.042 2.497-1.142z"></path>
<path fill="#233447" style="fill: var(--color13, #233447)" d="M18.56 20.995l1.042-2.184 2.51 1.142z"></path>
<path fill="#cd6116" style="fill: var(--color14, #cd6116)" d="M9.412 27.758l0.602-5.095-3.928 0.113z"></path>
<path fill="#cd6116" style="fill: var(--color14, #cd6116)" d="M21.986 22.664l0.602 5.095 3.326-4.982z"></path>
<path fill="#cd6116" style="fill: var(--color14, #cd6116)" d="M24.973 17.054l-7.053 0.314 0.653 3.627 1.042-2.184 2.51 1.142z"></path>
<path fill="#cd6116" style="fill: var(--color14, #cd6116)" d="M9.889 19.953l2.51-1.142 1.029 2.184 0.665-3.627-7.065-0.314z"></path>
<path fill="#e4751f" style="fill: var(--color15, #e4751f)" d="M7.027 17.054l2.962 5.773-0.1-2.874z"></path>
<path fill="#e4751f" style="fill: var(--color15, #e4751f)" d="M22.124 19.953l-0.125 2.874 2.974-5.773z"></path>
<path fill="#e4751f" style="fill: var(--color15, #e4751f)" d="M14.093 17.368l-0.665 3.627 0.828 4.279 0.188-5.634z"></path>
<path fill="#e4751f" style="fill: var(--color15, #e4751f)" d="M17.92 17.368l-0.339 2.259 0.151 5.647 0.841-4.279z"></path>
<path fill="#f6851b" style="fill: var(--color16, #f6851b)" d="M18.573 20.995l-0.841 4.279 0.602 0.414 3.664-2.861 0.125-2.874z"></path>
<path fill="#f6851b" style="fill: var(--color16, #f6851b)" d="M9.889 19.953l0.1 2.874 3.664 2.861 0.602-0.414-0.828-4.279z"></path>
<path fill="#c0ad9e" style="fill: var(--color17, #c0ad9e)" d="M18.635 29.628l0.038-1.167-0.314-0.276h-4.731l-0.289 0.276 0.025 1.167-3.953-1.87 1.38 1.129 2.798 1.945h4.806l2.811-1.945 1.38-1.129z"></path>
<path fill="#161616" style="fill: var(--color18, #161616)" d="M18.334 25.688l-0.602-0.414h-3.476l-0.602 0.414-0.314 2.773 0.289-0.276h4.731l0.314 0.276z"></path>
<path fill="#763d16" style="fill: var(--color19, #763d16)" d="M30.933 11.043l1.067-5.12-1.594-4.756-12.072 8.96 4.643 3.928 6.563 1.92 1.456-1.694-0.627-0.452 1.004-0.916-0.778-0.602 1.004-0.765z"></path>
<path fill="#763d16" style="fill: var(--color19, #763d16)" d="M0 5.923l1.067 5.12-0.678 0.502 1.004 0.765-0.765 0.602 1.004 0.916-0.627 0.452 1.443 1.694 6.563-1.92 4.643-3.928-12.072-8.96z"></path>
<path fill="#f6851b" style="fill: var(--color16, #f6851b)" d="M29.54 15.975l-6.563-1.92 1.995 2.999-2.974 5.773 3.915-0.050h5.835z"></path>
<path fill="#f6851b" style="fill: var(--color16, #f6851b)" d="M9.010 14.055l-6.563 1.92-2.184 6.802h5.823l3.903 0.050-2.962-5.773z"></path>
<path fill="#f6851b" style="fill: var(--color16, #f6851b)" d="M17.92 17.368l0.414-7.241 1.907-5.158h-8.471l1.882 5.158 0.439 7.241 0.151 2.284 0.013 5.622h3.476l0.025-5.622z"></path>
</symbol>
<symbol id="icon-assets-crypto" viewBox="0 0 32 32">
<path d="M12.468 24.942c-6.894 0-12.468-5.574-12.468-12.468s5.574-12.468 12.468-12.468c6.894 0 12.468 5.574 12.468 12.468s-5.574 12.468-12.468 12.468z"></path>
<path d="M25.639 11.587c0.781 0.548 1.486 1.203 2.092 1.948 1.099 1.349 1.841 2.953 2.159 4.663s0.203 3.473-0.335 5.128c-0.539 1.654-1.484 3.147-2.749 4.342s-2.809 2.053-4.492 2.497c-1.682 0.444-3.449 0.458-5.139 0.043s-3.248-1.249-4.532-2.422c-0.713-0.652-1.33-1.397-1.833-2.213-0.647-0.081-1.279-0.208-1.893-0.379 0.659 1.39 1.583 2.644 2.725 3.687 1.468 1.341 3.248 2.293 5.179 2.767s3.949 0.458 5.872-0.049 3.687-1.488 5.133-2.853c1.445-1.365 2.525-3.071 3.141-4.961s0.748-3.905 0.384-5.86c-0.364-1.954-1.213-3.787-2.468-5.328-0.973-1.195-2.166-2.187-3.511-2.923 0.134 0.622 0.224 1.26 0.267 1.912z"></path>
<path d="M8.543 24.314c0.587 0.194 1.194 0.346 1.817 0.452-0.206-0.412-0.386-0.838-0.536-1.276l-1.404 0.483c0.039 0.114 0.080 0.228 0.123 0.341z"></path>
<path d="M24.516 9.25c-0.116-0.052-0.232-0.101-0.349-0.15l-0.562 1.374c0.433 0.177 0.853 0.383 1.256 0.616-0.069-0.629-0.185-1.243-0.344-1.84z"></path>
</symbol>
<symbol id="icon-polygon" viewBox="0 0 32 32">
<path fill="#8247e5" style="fill: var(--color20, #8247e5)" d="M24.23 9.749c-0.585-0.334-1.337-0.334-2.005 0l-4.679 2.757-3.175 1.755-4.595 2.757c-0.585 0.334-1.337 0.334-2.005 0l-3.593-2.172c-0.585-0.334-1.003-1.003-1.003-1.755v-4.178c0-0.668 0.334-1.337 1.003-1.755l3.593-2.089c0.585-0.334 1.337-0.334 2.005 0l3.593 2.172c0.585 0.334 1.003 1.003 1.003 1.755v2.757l3.175-1.838v-2.841c0-0.668-0.334-1.337-1.003-1.755l-6.684-3.927c-0.585-0.334-1.337-0.334-2.005 0l-6.851 4.010c-0.668 0.334-1.003 1.003-1.003 1.671v7.854c0 0.668 0.334 1.337 1.003 1.755l6.768 3.927c0.585 0.334 1.337 0.334 2.005 0l4.595-2.674 3.175-1.838 4.595-2.674c0.585-0.334 1.337-0.334 2.005 0l3.593 2.089c0.585 0.334 1.003 1.003 1.003 1.755v4.178c0 0.668-0.334 1.337-1.003 1.755l-3.509 2.089c-0.585 0.334-1.337 0.334-2.005 0l-3.593-2.089c-0.585-0.334-1.003-1.003-1.003-1.755v-2.674l-3.175 1.838v2.757c0 0.668 0.334 1.337 1.003 1.755l6.768 3.927c0.585 0.334 1.337 0.334 2.005 0l6.768-3.927c0.585-0.334 1.002-1.003 1.002-1.755v-7.937c0-0.668-0.334-1.337-1.003-1.755l-6.768-3.927z"></path>
</symbol>
<symbol id="icon-telegram" viewBox="0 0 32 32">
<path d="M30.42 5.645l-4.55 21.457c-0.343 1.514-1.239 1.891-2.511 1.178l-6.932-5.108-3.345 3.217c-0.37 0.37-0.68 0.68-1.393 0.68l0.498-7.060 12.849-11.61c0.559-0.498-0.121-0.774-0.868-0.276l-15.884 10.002-6.838-2.14c-1.487-0.464-1.514-1.487 0.31-2.201l26.747-10.304c1.239-0.464 2.322 0.276 1.918 2.167z"></path>
</symbol>
<symbol id="icon-discord" viewBox="0 0 32 32">
<path d="M20.677 20.523c1.492 0 2.67-1.309 2.67-2.906s-1.178-2.906-2.67-2.906c-1.492 0-2.67 1.309-2.67 2.906s1.204 2.906 2.67 2.906zM27.536 7.694c0 0 3.77 6.833 3.77 15.263 0 0-2.225 3.796-8.011 3.979 0 0-0.943-1.126-1.728-2.121 3.43-0.969 4.739-3.115 4.739-3.115-1.073 0.707-2.094 1.204-3.011 1.545-5.641 2.369-11.918 1.558-16.336-0.916-0.013-0.009-0.060-0.036-0.129-0.076-0.217-0.125-0.652-0.375-0.944-0.579 0 0 1.257 2.094 4.582 3.089-0.785 0.995-1.754 2.173-1.754 2.173-5.786-0.183-7.985-3.979-7.985-3.979 0-8.43 3.77-15.263 3.77-15.263 3.77-2.827 7.357-2.749 7.357-2.749l0.262 0.314c-4.712 1.361-6.885 3.43-6.885 3.43s0.576-0.314 1.545-0.759c6.032-2.65 13.338-2.649 19.556 0.759 0 0-2.068-1.963-6.519-3.325l0.367-0.419c0 0 3.587-0.079 7.357 2.749zM11.119 14.711c-1.492 0-2.67 1.309-2.67 2.906s1.204 2.906 2.67 2.906c1.492 0 2.67-1.309 2.67-2.906 0.026-1.597-1.178-2.906-2.67-2.906z"></path>
</symbol>
<symbol id="icon-email" viewBox="0 0 32 32">
<path d="M25.035 26.541h-19.953c-2.824 0-5.082-2.259-5.082-5.082v-12.612c0-2.824 2.259-5.082 5.082-5.082h20.141c2.824 0 5.082 2.259 5.082 5.082v12.612c-0.188 2.824-2.447 5.082-5.271 5.082zM5.082 5.835c-1.694 0-3.2 1.506-3.2 3.2v12.612c0 1.694 1.506 3.2 3.2 3.2h20.141c1.694 0 3.2-1.506 3.2-3.2v-12.612c0-1.694-1.506-3.2-3.2-3.2h-20.141z"></path>
<path d="M29.741 10.353l-11.671 6.776c-0.753 0.565-1.882 0.753-3.012 0.753s-2.071-0.188-3.012-0.753l-11.671-6.776 0.941-1.694 11.671 6.776c1.129 0.565 3.012 0.565 3.953 0l11.671-6.776 1.129 1.694z"></path>
<path d="M10.2 15.062l-1.458-1.19-8.093 9.916 1.458 1.19 8.093-9.916z"></path>
<path d="M29.558 23.83l-8.095-9.915-1.458 1.19 8.095 9.915 1.458-1.19z"></path>
</symbol>
<symbol id="icon-wallet-connect" viewBox="0 0 32 32">
<path fill="#3b99fc" style="fill: var(--color21, #3b99fc)" d="M7.033 10.376c4.91-4.809 12.872-4.809 17.782 0l0.59 0.575c0.249 0.241 0.249 0.629 0 0.87l-2.020 1.981c-0.124 0.117-0.318 0.117-0.443 0l-0.816-0.8c-3.426-3.356-8.98-3.356-12.406 0l-0.87 0.855c-0.124 0.117-0.319 0.117-0.443 0l-2.028-1.973c-0.249-0.241-0.249-0.629 0-0.87l0.653-0.637zM28.995 14.47l1.802 1.763c0.249 0.241 0.249 0.629 0 0.87l-8.118 7.947c-0.249 0.241-0.645 0.241-0.886 0l-5.756-5.64c-0.062-0.062-0.163-0.062-0.225 0l-5.756 5.64c-0.249 0.241-0.645 0.241-0.886 0l-8.118-7.947c-0.249-0.241-0.249-0.629 0-0.87l1.802-1.763c0.249-0.241 0.645-0.241 0.886 0l5.756 5.64c0.062 0.062 0.163 0.062 0.225 0l5.756-5.64c0.249-0.241 0.645-0.241 0.886 0l5.756 5.64c0.062 0.062 0.163 0.062 0.225 0l5.756-5.64c0.249-0.241 0.645-0.241 0.893 0z"></path>
</symbol>
<symbol id="icon-livechat" viewBox="0 0 32 32">
<path fill="#161e25" style="fill: var(--color22, #161e25)" opacity="0.9" d="M12.986 27.077c-1.701 0-3.080-1.379-3.080-3.080v-11.071c0-1.701 1.379-3.080 3.080-3.080h15.934c1.701 0 3.080 1.379 3.080 3.080v12.31c0 1.017-0.824 1.841-1.841 1.841v0c-1.017 0-1.841 0.824-1.841 1.841v2.356c0 0.401-0.325 0.726-0.726 0.726v0c-0.193 0-0.378-0.077-0.514-0.213l-3.794-3.804c-0.578-0.58-1.363-0.905-2.181-0.905h-8.116zM18.097 15.72c0 1.031-0.833 1.867-1.861 1.867s-1.861-0.836-1.861-1.867c0-1.031 0.833-1.867 1.861-1.867s1.861 0.836 1.861 1.867zM27.404 15.72c0 1.031-0.833 1.867-1.861 1.867s-1.861-0.836-1.861-1.867c0-1.031 0.833-1.867 1.861-1.867s1.861 0.836 1.861 1.867zM13.63 21.693c-0.206 0-0.372 0.167-0.372 0.373v1.12c0 0.206 0.167 0.373 0.372 0.373h3.909c0.206 0 0.372-0.167 0.372-0.373v-1.12c0-0.206-0.167-0.373-0.372-0.373h-3.909zM18.469 22.066c0-0.206 0.167-0.373 0.372-0.373h3.909c0.206 0 0.372 0.167 0.372 0.373v1.12c0 0.206-0.167 0.373-0.372 0.373h-3.909c-0.206 0-0.372-0.167-0.372-0.373v-1.12zM24.054 21.693c-0.206 0-0.372 0.167-0.372 0.373v1.12c0 0.206 0.167 0.373 0.372 0.373h3.909c0.206 0 0.372-0.167 0.372-0.373v-1.12c0-0.206-0.167-0.373-0.372-0.373h-3.909z"></path>
<path fill="#161e25" style="fill: var(--color22, #161e25)" opacity="0.18000000000000002" d="M22.093 3.080c0-1.701-1.379-3.080-3.080-3.080h-15.934c-1.701 0-3.080 1.379-3.080 3.080v11.071c0 1.701 1.379 3.080 3.080 3.080h4.498c0.56 0 1.014-0.454 1.014-1.014v-3.157c0-2.455 1.99-4.444 4.444-4.444h8.044c0.56 0 1.014-0.454 1.014-1.014v-4.522z"></path>
</symbol>
<symbol id="icon-arbitrum-one" viewBox="0 0 29 32">
<path fill="#1d86cc" style="fill: var(--color23, #1d86cc)" d="M28.999 21.827c0 0 0 0 0 0 0 1.597-0.865 2.991-2.151 3.742l-0.021 0.011-10.171 5.845c-0.619 0.362-1.363 0.575-2.156 0.575s-1.537-0.214-2.177-0.587l0.021 0.011-10.171-5.845c-1.307-0.761-2.172-2.156-2.172-3.753v-11.654c0-0 0-0 0-0 0-1.597 0.865-2.991 2.151-3.742l0.021-0.011 10.171-5.845c0.619-0.362 1.363-0.575 2.156-0.575s1.538 0.214 2.177 0.587l-0.021-0.011 10.171 5.845c1.307 0.761 2.172 2.156 2.172 3.753v0z"></path>
<path fill="#fff" style="fill: var(--color2, #fff)" d="M13.246 2.203l-10.042 5.8c-0.756 0.442-1.255 1.25-1.255 2.174 0 0 0 0.001 0 0.001v-0l0.006 11.612c0.001 0.923 0.499 1.73 1.242 2.165l0.012 0.006 10.053 5.812c0.36 0.211 0.793 0.336 1.255 0.336s0.895-0.125 1.267-0.343l-0.012 0.006 10.042-5.798c0.756-0.442 1.255-1.25 1.255-2.174 0-0 0-0.001 0-0.001v0l-0.006-11.612c-0.001-0.923-0.499-1.729-1.242-2.165l-0.012-0.006-10.053-5.812c-0.36-0.211-0.793-0.336-1.255-0.336s-0.895 0.125-1.267 0.343l0.012-0.006z"></path>
<path fill="#2d374b" style="fill: var(--color24, #2d374b)" d="M9.932 25.848c0.017-0.079 0.051-0.149 0.099-0.207l-0.001 0.001q4.506-7.645 9.013-15.29c0.042-0.071 0.081-0.143 0.116-0.207-0.026-0.046-0.056-0.037-0.082-0.037-1.284 0.005-2.567 0.013-3.852 0.011-0.001-0-0.003-0-0.005-0-0.113 0-0.21 0.070-0.25 0.169l-0.001 0.002q-1.453 2.402-2.909 4.803-3.085 5.090-6.171 10.179c-0.018 0.030-0.037 0.059-0.053 0.090-0.036 0.070-0.078 0.081-0.152 0.038-0.319-0.189-0.642-0.371-0.981-0.566l9.154-14.682c-0.020-0.060-0.060-0.045-0.091-0.046-0.491-0.015-0.981-0.036-1.472-0.040-0.048-0.002-0.104-0.002-0.161-0.002-0.668 0-1.308 0.12-1.899 0.341l0.038-0.012c-0.6 0.226-1.090 0.63-1.418 1.146l-0.007 0.012q-2.509 3.913-5.037 7.814c-0.026 0.041-0.055 0.081-0.082 0.122-0.097 0-0.082-0.080-0.091-0.135-0.005-0.049-0.008-0.107-0.008-0.165 0-0.031 0.001-0.061 0.003-0.091l-0 0.004c0-2.877 0.010-5.753-0.009-8.629-0.001-0.023-0.002-0.049-0.002-0.076 0-0.493 0.288-0.919 0.705-1.119l0.007-0.003c2.212-1.261 4.41-2.548 6.614-3.822 0.984-0.569 1.971-1.132 2.948-1.712 0.174-0.118 0.39-0.189 0.621-0.189s0.447 0.071 0.625 0.192l-0.004-0.002c1.796 1.054 3.608 2.084 5.414 3.123q2.043 1.176 4.087 2.348c0.098 0.056 0.193 0.115 0.291 0.17 0.301 0.162 0.502 0.475 0.502 0.835 0 0.018-0.001 0.037-0.002 0.055l0-0.002q0.004 4.694 0 9.387c0.001 0.015 0.002 0.032 0.002 0.050 0 0.064-0.010 0.125-0.028 0.183l0.001-0.004c-0.108 0.105-0.147-0.013-0.187-0.068-0.162-0.228-0.308-0.469-0.459-0.705q-1.812-2.835-3.636-5.665c-0.409-0.637-0.822-1.272-1.227-1.912-0.094-0.149-0.111-0.152-0.206 0.009q-0.915 1.548-1.829 3.097c-0.027 0.045-0.043 0.1-0.043 0.158 0 0.081 0.030 0.154 0.080 0.21l-0-0q0.754 1.216 1.504 2.433l2.566 4.151q0.519 0.841 1.041 1.681c0.062 0.072 0.101 0.166 0.103 0.269v0c-0.069 0.138-0.214 0.177-0.335 0.24-0.186 0.136-0.399 0.25-0.628 0.331l-0.018 0.006c-0.124-0.031-0.168-0.143-0.227-0.235-0.794-1.239-1.579-2.485-2.368-3.727-0.812-1.277-1.62-2.558-2.435-3.834-0.105-0.164-0.121-0.165-0.219 0-0.709 1.193-1.409 2.392-2.12 3.584-0.032 0.049-0.051 0.109-0.051 0.173 0 0.075 0.026 0.144 0.069 0.198l-0.001-0.001c0.958 1.476 1.893 2.965 2.841 4.448 0.264 0.413 0.53 0.825 0.79 1.242 0.051 0.081 0.12 0.162 0.074 0.271-0.233 0.183-0.495 0.348-0.774 0.486l-0.026 0.012q-1.327 0.772-2.656 1.543c-0.134 0.088-0.299 0.14-0.476 0.14s-0.342-0.052-0.479-0.142l0.003 0.002q-1.957-1.132-3.922-2.254c-0.092-0.037-0.169-0.098-0.225-0.174l-0.001-0.001z"></path>
<path fill="#96bedc" style="fill: var(--color25, #96bedc)" d="M25.368 19.914c0.002-0.077 0.006-0.154 0.006-0.231q0-4.683 0.003-9.365c0.001-0.017 0.002-0.037 0.002-0.057 0-0.377-0.214-0.704-0.528-0.866l-0.005-0.003q-4.917-2.819-9.828-5.651c-0.14-0.093-0.313-0.148-0.498-0.148-0.183 0-0.354 0.054-0.497 0.147l0.004-0.002q-2.727 1.585-5.46 3.161-2.193 1.27-4.386 2.54c-0.295 0.155-0.493 0.46-0.493 0.811 0 0.018 0.001 0.035 0.002 0.053l-0-0.002q0.011 4.493 0.013 8.987c0 0.067-0.027 0.141 0.031 0.2-0.346 0.577-0.727 1.131-1.091 1.695q-0.274 0.424-0.55 0.846c-0.029 0.045-0.063 0.087-0.122 0.167-0.004-0.094-0.009-0.146-0.009-0.198q0-5.926 0.002-11.851c-0-0.016-0.001-0.034-0.001-0.053 0-0.901 0.499-1.685 1.236-2.092l0.012-0.006c1.271-0.755 2.559-1.482 3.839-2.223q1.62-0.938 3.235-1.881c1.006-0.584 2.002-1.186 3.026-1.739 0.351-0.199 0.771-0.316 1.219-0.316 0.493 0 0.953 0.143 1.341 0.389l-0.010-0.006c0.822 0.467 1.641 0.942 2.461 1.413q1.157 0.666 2.314 1.333 1.066 0.614 2.133 1.226 1.058 0.607 2.115 1.214c0.31 0.178 0.62 0.356 0.928 0.538 0.677 0.388 1.156 1.054 1.286 1.838l0.002 0.015c0.010 0.073 0.016 0.158 0.016 0.243 0 0.033-0.001 0.065-0.003 0.097l0-0.005q0 5.831 0.002 11.662c0 0.004 0 0.009 0 0.014 0 0.771-0.349 1.461-0.897 1.92l-0.004 0.003c-0.151 0.116-0.321 0.222-0.502 0.311l-0.018 0.008q-1.58 0.922-3.164 1.836-1.683 0.974-3.368 1.944-1.619 0.938-3.235 1.883c-0.253 0.172-0.551 0.3-0.872 0.363l-0.015 0.003c-0.144 0.029-0.31 0.046-0.479 0.046-0.392 0-0.763-0.090-1.094-0.251l0.015 0.007c-0.537-0.288-1.060-0.601-1.59-0.904q-1.067-0.612-2.132-1.226-0.301-0.173-0.602-0.344c-0.074-0.042-0.124-0.085-0.067-0.181 0.266-0.445 0.527-0.893 0.792-1.339 0.009-0.016 0.033-0.024 0.050-0.036 0.28 0.132 0.514 0.262 0.738 0.407l-0.024-0.015q1.741 0.995 3.476 2.001c0.124 0.080 0.276 0.127 0.438 0.127 0.169 0 0.326-0.051 0.456-0.138l-0.003 0.002c1.099-0.645 2.203-1.28 3.305-1.919 0.055-0.032 0.11-0.060 0.166-0.090 0.103-0.131 0.238-0.231 0.395-0.29l0.006-0.002c0.995-0.57 1.984-1.152 2.979-1.721 0.083-0.047 0.158-0.121 0.266-0.108l0.975-0.565c0.059-0.125 0.187-0.165 0.293-0.226 0.491-0.283 0.977-0.574 1.472-0.849 0.269-0.144 0.449-0.423 0.449-0.744 0-0.018-0.001-0.036-0.002-0.053l0 0.002c0.005-0.496 0-0.993 0.002-1.49-0.004-0.020-0.006-0.044-0.006-0.068 0-0.073 0.021-0.14 0.058-0.197l-0.001 0.001z"></path>
<path fill="#28a0f0" style="fill: var(--color26, #28a0f0)" d="M25.369 19.914c0.003 0.616 0.016 1.234 0.002 1.849 0 0.006 0 0.013 0 0.021 0 0.295-0.164 0.552-0.405 0.685l-0.004 0.002c-0.621 0.351-1.23 0.723-1.856 1.065-0.249-0.454-0.537-0.887-0.809-1.329q-2.121-3.438-4.246-6.871c-0.085-0.137-0.163-0.28-0.257-0.409-0.030-0.036-0.048-0.082-0.048-0.132s0.018-0.097 0.048-0.133l-0 0c0.338-0.566 0.671-1.135 1.006-1.703l0.929-1.576c0.017-0.038 0.045-0.068 0.081-0.086l0.001-0q0.243 0.374 0.487 0.752 1.466 2.283 2.932 4.566l1.988 3.098c0.038 0.079 0.089 0.146 0.151 0.201l0.001 0.001z"></path>
<path fill="#28a0f0" style="fill: var(--color26, #28a0f0)" d="M22.131 24.1c-0.404 0.265-0.832 0.49-1.248 0.736-0.754 0.443-1.513 0.879-2.27 1.317-0.043 0.024-0.087 0.047-0.128 0.071-0.010-0.073-0.041-0.138-0.087-0.189l0 0q-1.011-1.589-2.022-3.177-0.831-1.304-1.666-2.606c-0.039-0.046-0.063-0.106-0.063-0.172 0-0.057 0.018-0.11 0.048-0.154l-0.001 0.001q1.117-1.881 2.224-3.768c0.018-0.029 0.032-0.063 0.075-0.072 0.061 0.014 0.075 0.074 0.104 0.119l4.025 6.341c0.285 0.45 0.57 0.901 0.857 1.35 0.038 0.079 0.088 0.145 0.149 0.201l0 0z"></path>
</symbol>
<symbol id="icon-binance-smart-chain" viewBox="0 0 27 32">
<path fill="#f3ba2f" style="fill: var(--color4, #f3ba2f)" d="M16.741 26.573v3.588l-3.129 1.839-3.040-1.839v-3.588l3.040 1.839zM0 14.161l3.040 1.839v6.154l5.234 3.129v3.588l-8.274-4.879zM27.225 14.161v9.846l-8.363 4.879v-3.588l5.234-3.129v-6.154zM18.847 9.283l3.129 1.839v3.588l-5.234 3.129v6.243l-3.040 1.839-3.025-1.839v-6.258l-5.427-3.129v-3.588l3.129-1.839 5.234 3.129zM5.249 17.275l3.040 1.839v3.588l-3.040-1.839zM21.976 17.275v3.588l-3.040 1.839v-3.588zM3.040 6.154l3.129 1.839-3.129 1.839v3.588l-3.040-1.839v-3.588zM24.185 6.154l3.129 1.839v3.589l-3.129 1.839v-3.588l-3.040-1.839zM13.613 6.154l3.129 1.839-3.129 1.839-3.040-1.839zM13.613 0l8.363 4.879-3.040 1.839-5.234-3.129-5.338 3.129-3.040-1.839z"></path>
</symbol>
<symbol id="icon-bitcoin" viewBox="0 0 32 32">
<path fill="#f7931a" style="fill: var(--color27, #f7931a)" d="M31.517 19.871c-1.794 7.017-8.060 12.122-15.518 12.122-8.833 0-15.994-7.161-15.994-15.994s7.161-15.994 15.994-15.994c1.373 0 2.707 0.173 3.979 0.499l-0.111-0.024c7.019 1.793 12.126 8.060 12.126 15.521 0 1.375-0.173 2.709-0.5 3.982l0.024-0.111z"></path>
<path fill="#fff" style="fill: var(--color2, #fff)" d="M23.053 13.721c0.318-2.129-1.303-3.273-3.519-4.037l0.719-2.884-1.755-0.438-0.7 2.808c-0.462-0.115-0.935-0.223-1.406-0.331l0.705-2.827-1.754-0.438-0.719 2.883c-0.382-0.087-0.757-0.173-1.121-0.264l0.002-0.009-2.421-0.604-0.467 1.875s1.303 0.299 1.275 0.317c0.466 0.057 0.823 0.451 0.823 0.927 0 0.033-0.002 0.066-0.005 0.098l0-0.004-0.819 3.286c0.073 0.018 0.133 0.038 0.192 0.062l-0.010-0.003c-0.059-0.014-0.121-0.031-0.186-0.046l-1.148 4.605c-0.085 0.262-0.326 0.447-0.61 0.447-0.069 0-0.136-0.011-0.199-0.031l0.005 0.001c0.018 0.026-1.276-0.318-1.276-0.318l-0.871 2.010 2.284 0.569c0.425 0.106 0.842 0.218 1.251 0.323l-0.726 2.917 1.752 0.438 0.719-2.886c0.479 0.13 0.943 0.25 1.399 0.363l-0.717 2.872 1.755 0.438 0.726-2.912c2.993 0.566 5.244 0.337 6.192-2.369 0.764-2.18-0.038-3.437-1.613-4.258 1.146-0.265 2.011-1.019 2.241-2.578zM19.043 19.345c-0.542 2.18-4.212 1.001-5.403 0.708l0.964-3.864c1.188 0.296 5.005 0.883 4.438 3.157zM19.586 13.689c-0.495 1.983-3.55 0.977-4.541 0.728l0.874-3.504c0.99 0.246 4.181 0.707 3.665 2.776z"></path>
</symbol>
<symbol id="icon-cardano" viewBox="0 0 32 32">
<path fill="#fff" style="fill: var(--color2, #fff)" d="M32 16c0 8.837-7.163 16-16 16s-16-7.163-16-16c0-8.837 7.163-16 16-16s16 7.163 16 16z"></path>
<path fill="#0033ad" style="fill: var(--color28, #0033ad)" d="M10.758 15.923c-0.002 0.026-0.002 0.055-0.002 0.085 0 0.832 0.651 1.513 1.471 1.561l0.004 0h0.093c0.861-0.003 1.557-0.702 1.557-1.563 0-0.863-0.7-1.563-1.563-1.563-0.833 0-1.514 0.653-1.56 1.475l-0 0.004z"></path>
<path fill="#0033ad" style="fill: var(--color28, #0033ad)" d="M4.927 15.52c-0.008-0.001-0.018-0.001-0.028-0.001-0.279 0-0.505 0.226-0.505 0.505s0.226 0.505 0.505 0.505c0.269 0 0.489-0.211 0.504-0.476l0-0.001c0.001-0.009 0.001-0.020 0.001-0.031 0-0.269-0.211-0.488-0.476-0.501l-0.001-0z"></path>
<path fill="#0033ad" style="fill: var(--color28, #0033ad)" d="M10.659 6.849c0.166-0.085 0.278-0.256 0.278-0.452 0-0.28-0.227-0.507-0.507-0.507-0.084 0-0.162 0.020-0.232 0.056l0.003-0.001c-0.166 0.085-0.278 0.256-0.278 0.452 0 0.28 0.227 0.507 0.507 0.507 0.084 0 0.162-0.020 0.232-0.056l-0.003 0.001z"></path>
<path fill="#0033ad" style="fill: var(--color28, #0033ad)" d="M12.243 9.616c0.257-0.131 0.43-0.394 0.43-0.696 0-0.43-0.349-0.779-0.779-0.779s-0.779 0.349-0.779 0.779c0 0.128 0.031 0.248 0.085 0.354l-0.002-0.004c0.132 0.256 0.394 0.429 0.697 0.429 0.127 0 0.247-0.030 0.353-0.084l-0.004 0.002z"></path>
<path fill="#0033ad" style="fill: var(--color28, #0033ad)" d="M6.908 11.516c0.099 0.066 0.222 0.105 0.353 0.105 0.356 0 0.644-0.288 0.644-0.644s-0.288-0.644-0.644-0.644c-0.224 0-0.422 0.115-0.537 0.289l-0.002 0.002c-0.067 0.1-0.106 0.222-0.106 0.354 0 0.224 0.115 0.422 0.29 0.536l0.002 0.002z"></path>
<path fill="#0033ad" style="fill: var(--color28, #0033ad)" d="M7.855 15.242c-0.013-0.001-0.028-0.001-0.043-0.001-0.431 0-0.781 0.35-0.781 0.781s0.35 0.781 0.781 0.781c0.416 0 0.756-0.325 0.78-0.736l0-0.002c0.001-0.013 0.001-0.028 0.001-0.043 0-0.416-0.325-0.756-0.736-0.78l-0.002-0z"></path>
<path fill="#0033ad" style="fill: var(--color28, #0033ad)" d="M6.994 20.484c-0.212 0.109-0.354 0.326-0.354 0.576 0 0.356 0.289 0.645 0.645 0.645s0.645-0.289 0.645-0.645c0-0.106-0.026-0.206-0.071-0.295l0.002 0.004c-0.109-0.211-0.327-0.353-0.577-0.353-0.106 0-0.205 0.025-0.293 0.070l0.004-0.002z"></path>
<path fill="#0033ad" style="fill: var(--color28, #0033ad)" d="M10.027 13.626c0.141 0.094 0.315 0.149 0.501 0.149 0.506 0 0.917-0.41 0.917-0.917s-0.41-0.917-0.917-0.917c-0.32 0-0.602 0.164-0.766 0.412l-0.002 0.003c-0.095 0.141-0.151 0.316-0.151 0.503 0 0.32 0.165 0.601 0.414 0.764l0.004 0.002z"></path>
<path fill="#0033ad" style="fill: var(--color28, #0033ad)" d="M19.652 9.554c0.121 0.081 0.27 0.129 0.43 0.129 0.432 0 0.782-0.35 0.782-0.782s-0.35-0.782-0.782-0.782c-0.272 0-0.511 0.139-0.651 0.349l-0.002 0.003c-0.083 0.121-0.132 0.271-0.132 0.433 0 0.272 0.14 0.511 0.352 0.649l0.003 0.002z"></path>
<path fill="#0033ad" style="fill: var(--color28, #0033ad)" d="M21.249 6.799c0.077 0.050 0.171 0.080 0.273 0.080 0.279 0 0.506-0.226 0.506-0.506s-0.226-0.506-0.506-0.506c-0.175 0-0.329 0.089-0.42 0.224l-0.001 0.002c-0.049 0.078-0.079 0.173-0.079 0.275 0 0.178 0.089 0.335 0.225 0.429l0.002 0.001z"></path>
<path fill="#0033ad" style="fill: var(--color28, #0033ad)" d="M19.77 14.431c-0.036-0.003-0.077-0.005-0.119-0.005-0.863 0-1.563 0.7-1.563 1.563 0 0.844 0.669 1.532 1.506 1.561l0.003 0h0.087c0.861-0.001 1.559-0.699 1.559-1.561 0-0.831-0.649-1.51-1.468-1.558l-0.004-0z"></path>
<path fill="#0033ad" style="fill: var(--color28, #0033ad)" d="M12.757 13.515c0.264 0.513 0.789 0.857 1.395 0.857 0.864 0 1.564-0.7 1.564-1.564s-0.7-1.564-1.564-1.564c-0.256 0-0.498 0.061-0.711 0.17l0.009-0.004c-0.515 0.264-0.861 0.791-0.861 1.399 0 0.257 0.062 0.5 0.172 0.715l-0.004-0.009z"></path>
<path fill="#0033ad" style="fill: var(--color28, #0033ad)" d="M25.006 11.516c0.208-0.11 0.347-0.324 0.347-0.571 0-0.355-0.288-0.644-0.644-0.644s-0.644 0.288-0.644 0.644c0 0.104 0.025 0.203 0.069 0.29l-0.002-0.004c0.111 0.212 0.33 0.353 0.581 0.353 0.106 0 0.207-0.025 0.295-0.070l-0.004 0.002z"></path>
<path fill="#0033ad" style="fill: var(--color28, #0033ad)" d="M21.044 12.011c-0.302 0.154-0.506 0.463-0.506 0.82 0 0.507 0.411 0.918 0.918 0.918s0.918-0.411 0.918-0.918c0-0.15-0.036-0.292-0.1-0.417l0.002 0.005c-0.154-0.302-0.463-0.506-0.82-0.506-0.15 0-0.292 0.036-0.417 0.1l0.005-0.002z"></path>
<path fill="#0033ad" style="fill: var(--color28, #0033ad)" d="M15.938 6.564c0.009 0 0.020 0.001 0.030 0.001 0.344 0 0.627-0.267 0.651-0.605l0-0.002c0.001-0.012 0.001-0.026 0.001-0.040 0-0.356-0.289-0.645-0.645-0.645-0.342 0-0.622 0.266-0.644 0.603l-0 0.002c-0.001 0.010-0.001 0.023-0.001 0.035 0 0.345 0.267 0.627 0.605 0.652l0.002 0z"></path>
<path fill="#0033ad" style="fill: var(--color28, #0033ad)" d="M15.932 10.606c0.015 0.001 0.032 0.001 0.050 0.001 0.507 0 0.917-0.411 0.917-0.917s-0.411-0.917-0.917-0.917c-0.489 0-0.889 0.383-0.916 0.866l-0 0.002c-0.001 0.017-0.002 0.036-0.002 0.055 0 0.488 0.384 0.887 0.866 0.91l0.002 0z"></path>
<path fill="#0033ad" style="fill: var(--color28, #0033ad)" d="M10.956 19.989c0.302-0.154 0.506-0.463 0.506-0.82 0-0.507-0.411-0.918-0.918-0.918s-0.918 0.411-0.918 0.918c0 0.15 0.036 0.292 0.1 0.417l-0.002-0.005c0.154 0.302 0.463 0.506 0.82 0.506 0.15 0 0.292-0.036 0.417-0.1l-0.005 0.002z"></path>
<path fill="#0033ad" style="fill: var(--color28, #0033ad)" d="M16.526 11.949c-0.16 0.241-0.256 0.538-0.256 0.857 0 0.863 0.7 1.563 1.563 1.563s1.563-0.7 1.563-1.563c0-0.863-0.7-1.563-1.563-1.563-0 0-0 0-0.001 0h0c-0 0-0.001 0-0.002 0-0.543 0-1.022 0.278-1.301 0.7l-0.004 0.006z"></path>
<path fill="#0033ad" style="fill: var(--color28, #0033ad)" d="M19.243 18.485c-0.263-0.514-0.789-0.86-1.396-0.86-0.863 0-1.563 0.7-1.563 1.563s0.7 1.563 1.563 1.563c0.256 0 0.498-0.062 0.711-0.171l-0.009 0.004c0.516-0.26 0.863-0.786 0.863-1.393 0-0.253-0.060-0.491-0.167-0.702l0.004 0.009c-0.001-0.006-0.001-0.006-0.007-0.012z"></path>
<path fill="#0033ad" style="fill: var(--color28, #0033ad)" d="M21.973 18.374c-0.141-0.094-0.315-0.149-0.501-0.149-0.506 0-0.917 0.41-0.917 0.917s0.41 0.917 0.917 0.917c0.32 0 0.601-0.164 0.765-0.412l0.002-0.003c0.095-0.142 0.151-0.316 0.151-0.503 0-0.32-0.165-0.601-0.414-0.764l-0.003-0.002z"></path>
<path fill="#0033ad" style="fill: var(--color28, #0033ad)" d="M24.969 16.028c0.001-0.013 0.001-0.028 0.001-0.043 0-0.431-0.35-0.781-0.781-0.781s-0.781 0.35-0.781 0.781c0 0.416 0.325 0.756 0.736 0.78l0.002 0c0.012 0.001 0.025 0.001 0.039 0.001 0.417 0 0.758-0.325 0.784-0.735l0-0.002z"></path>
<path fill="#0033ad" style="fill: var(--color28, #0033ad)" d="M27.129 15.471c-0.008-0.001-0.018-0.001-0.028-0.001-0.279 0-0.505 0.226-0.505 0.505s0.226 0.505 0.505 0.505c0.269 0 0.489-0.211 0.504-0.476l0-0.001c0-0.007 0.001-0.016 0.001-0.024 0-0.27-0.21-0.491-0.476-0.508l-0.002-0z"></path>
<path fill="#0033ad" style="fill: var(--color28, #0033ad)" d="M25.092 20.484c-0.099-0.066-0.222-0.105-0.353-0.105-0.356 0-0.644 0.288-0.644 0.644s0.288 0.644 0.644 0.644c0.224 0 0.422-0.115 0.537-0.289l0.002-0.002c0.067-0.099 0.106-0.222 0.106-0.354 0-0.224-0.115-0.422-0.29-0.536l-0.002-0.002z"></path>
<path fill="#0033ad" style="fill: var(--color28, #0033ad)" d="M10.745 25.201c-0.078-0.052-0.175-0.084-0.278-0.084-0.279 0-0.505 0.226-0.505 0.505s0.226 0.505 0.505 0.505c0.175 0 0.329-0.089 0.42-0.224l0.001-0.002c0.055-0.079 0.087-0.176 0.087-0.281 0-0.175-0.091-0.329-0.228-0.418l-0.002-0.001z"></path>
<path fill="#0033ad" style="fill: var(--color28, #0033ad)" d="M21.342 25.151c-0.166 0.085-0.278 0.256-0.278 0.452 0 0.28 0.227 0.507 0.507 0.507 0.084 0 0.162-0.020 0.232-0.056l-0.003 0.001c0.166-0.085 0.278-0.256 0.278-0.452 0-0.28-0.227-0.507-0.507-0.507-0.084 0-0.162 0.020-0.232 0.056l0.003-0.001z"></path>
<path fill="#0033ad" style="fill: var(--color28, #0033ad)" d="M15.474 20.051c0.16-0.242 0.256-0.538 0.256-0.857 0-0.864-0.701-1.565-1.565-1.565s-1.565 0.701-1.565 1.565c0 0.545 0.279 1.025 0.702 1.305l0.006 0.004c0.241 0.159 0.537 0.254 0.856 0.254 0.545 0 1.026-0.278 1.307-0.7l0.004-0.006z"></path>
<path fill="#0033ad" style="fill: var(--color28, #0033ad)" d="M12.348 22.446c-0.121-0.081-0.27-0.129-0.43-0.129-0.432 0-0.782 0.35-0.782 0.782s0.35 0.782 0.782 0.782c0.272 0 0.511-0.139 0.651-0.349l0.002-0.003c0.082-0.121 0.132-0.271 0.132-0.432 0-0.272-0.14-0.511-0.352-0.649l-0.003-0.002z"></path>
<path fill="#0033ad" style="fill: var(--color28, #0033ad)" d="M15.994 25.436c-0.011-0.001-0.024-0.001-0.037-0.001-0.356 0-0.645 0.289-0.645 0.645s0.289 0.645 0.645 0.645c0.341 0 0.62-0.264 0.643-0.599l0-0.002c0.001-0.011 0.001-0.024 0.001-0.037 0-0.345-0.267-0.627-0.606-0.651l-0.002-0z"></path>
<path fill="#0033ad" style="fill: var(--color28, #0033ad)" d="M16 21.394c-0.015-0.001-0.032-0.001-0.050-0.001-0.507 0-0.917 0.411-0.917 0.917s0.411 0.917 0.917 0.917c0.489 0 0.889-0.383 0.916-0.866l0-0.002c0.001-0.017 0.002-0.036 0.002-0.055 0-0.488-0.384-0.887-0.866-0.91l-0.002-0z"></path>
<path fill="#0033ad" style="fill: var(--color28, #0033ad)" d="M19.757 22.384c-0.254 0.133-0.424 0.394-0.424 0.695 0 0.432 0.35 0.782 0.782 0.782s0.782-0.35 0.782-0.782c0-0.127-0.030-0.247-0.084-0.353l0.002 0.004c-0.131-0.259-0.395-0.434-0.7-0.434-0.131 0-0.254 0.032-0.363 0.089l0.004-0.002z"></path>
</symbol>
<symbol id="icon-celo" viewBox="0 0 32 32">
<path fill="#fbcc5c" style="fill: var(--color29, #fbcc5c)" d="M12.632 28.632c5.117 0 9.263-4.147 9.263-9.263s-4.147-9.263-9.263-9.263-9.263 4.147-9.263 9.263 4.147 9.263 9.263 9.263zM12.632 32c-6.976 0-12.632-5.656-12.632-12.632s5.656-12.632 12.632-12.632 12.632 5.656 12.632 12.632-5.656 12.632-12.632 12.632z"></path>
<path fill="#35d07f" style="fill: var(--color30, #35d07f)" d="M19.368 21.895c5.117 0 9.263-4.147 9.263-9.263s-4.147-9.263-9.263-9.263-9.263 4.147-9.263 9.263 4.147 9.263 9.263 9.263zM19.368 25.263c-6.976 0-12.632-5.656-12.632-12.632s5.656-12.632 12.632-12.632 12.632 5.656 12.632 12.632-5.656 12.632-12.632 12.632z"></path>
<path fill="#5ea33b" style="fill: var(--color31, #5ea33b)" d="M19.786 25.263c0.876-1.061 1.502-2.304 1.836-3.641 1.334-0.333 2.577-0.96 3.641-1.836-0.047 1.546-0.381 3.069-0.984 4.497-1.425 0.6-2.947 0.933-4.493 0.98zM10.378 10.378c-1.334 0.333-2.577 0.96-3.641 1.836 0.047-1.546 0.381-3.069 0.984-4.493 1.425-0.6 2.951-0.933 4.493-0.984-0.876 1.061-1.502 2.304-1.836 3.641z"></path>
</symbol>
<symbol id="icon-eos" viewBox="0 0 32 32">
<path fill="#fff" style="fill: var(--color2, #fff)" d="M32 16c0 8.837-7.163 16-16 16s-16-7.163-16-16c0-8.837 7.163-16 16-16s16 7.163 16 16z"></path>
<path fill="#000" style="fill: var(--color32, #000)" d="M16 4.144l-5.549 7.635-2.324 11.287 7.872 4.79 7.872-4.79-2.371-11.335zM9.408 22.544l1.755-8.584 3.984 12.094zM11.732 12.016l4.268-5.88 4.268 5.881-4.268 12.899zM16.806 26.053l3.984-12.093 1.755 8.584z"></path>
</symbol>
<symbol id="icon-fantom" viewBox="0 0 32 32">
<path fill="#13b5ec" style="fill: var(--color33, #13b5ec)" d="M32 16c0 8.837-7.163 16-16 16s-16-7.163-16-16c0-8.837 7.163-16 16-16s16 7.163 16 16z"></path>
<path fill="#fff" style="fill: var(--color2, #fff)" d="M17.2 12.9l3.6-2.1v4.2zM20.8 21.9l-4.8 2.8-4.8-2.8v-4.9l4.8 2.8 4.8-2.8zM11.2 10.8l3.6 2.1-3.6 2.1zM16.6 13.9l3.6 2.1-3.6 2.1zM15.4 18.1l-3.6-2.1 3.6-2.1zM20.2 9.8l-4.2 2.4-4.2-2.4 4.2-2.5zM10 9.4v13.1l6 3.4 6-3.4v-13.1l-6-3.4z"></path>
</symbol>
<symbol id="icon-nem" viewBox="0 0 32 32">
<path fill="#000" style="fill: var(--color32, #000)" d="M16.122 29.763l-0.159-0.079c-6.193-3.626-10.878-9.608-12.784-16.754-0.304-1.125-0.529-2.276-0.688-3.441-0.146-1.165-0.225-2.342-0.238-3.52 0-0.198-0.027-0.172 0.159-0.265 2.329-1.323 4.791-2.289 7.398-2.898 0.966-0.225 1.932-0.397 2.911-0.516 1.35-0.159 2.7-0.225 4.063-0.198 0.767 0.013 1.522 0.066 2.276 0.146 3.798 0.41 7.358 1.548 10.693 3.414 0.053 0.027 0.093 0.053 0.146 0.079s0.079 0.066 0.079 0.132v0.198c-0.013 0.688-0.040 1.363-0.093 2.051-0.079 0.979-0.212 1.945-0.397 2.911-0.397 2.078-1.019 4.076-1.879 5.995-1.363 3.057-3.229 5.783-5.585 8.165-1.694 1.72-3.586 3.203-5.677 4.433-0.079 0.053-0.146 0.093-0.225 0.146zM3.523 6.644v0.159c0 0.966 0.066 1.945 0.185 2.898 0.106 0.873 0.252 1.734 0.45 2.594 0.040 0.146 0.079 0.291 0.146 0.437 1.191 2.528 3.944 3.877 6.67 3.255 2.078-0.477 3.772-2.078 4.341-4.129 0.159-0.569 0.212-1.151 0.238-1.734 0.013-0.384 0.053-0.767 0.119-1.151 0.45-2.329 1.998-4.248 4.182-5.161 0.119-0.053 0.252-0.093 0.371-0.146 0.013-0.013 0.040-0.013 0.040-0.040-0.344-0.119-2.395-0.331-3.626-0.357-2.647-0.053-5.241 0.291-7.768 1.059-1.879 0.569-3.652 1.337-5.346 2.316zM23.043 22.498c0.066-0.040 0.106-0.093 0.132-0.132 0.529-0.662 1.032-1.35 1.495-2.065 1.654-2.567 2.819-5.333 3.467-8.324 0.225-1.019 0.371-2.038 0.463-3.070 0.066-0.701 0.093-1.403 0.093-2.117 0-0.053 0-0.093-0.013-0.146l-0.198-0.119c-0.542-0.304-1.098-0.596-1.654-0.86-0.821-0.384-1.641-0.728-2.501-1.006-1.046-0.331-2.104-0.371-3.163-0.106-3.030 0.728-4.976 3.705-4.394 6.762 0.317 1.694 1.231 3.017 2.686 3.944 0.093 0.066 0.198 0.119 0.291 0.185 1.072 0.648 1.906 1.535 2.501 2.634 0.635 1.151 0.913 2.395 0.834 3.705 0.013 0.225-0.013 0.463-0.040 0.715zM16.122 28.413c0.053-0.027 0.119-0.066 0.172-0.106 1.667-0.979 3.203-2.144 4.605-3.467 0.093-0.079 0.159-0.185 0.212-0.291 0.093-0.172 0.185-0.357 0.265-0.529 0.662-1.376 0.807-2.805 0.371-4.288-0.86-2.858-3.613-4.499-6.379-4.155-0.794 0.093-1.522 0.344-2.21 0.741-1.31 0.741-2.713 1.046-4.222 0.9-0.741-0.066-1.442-0.265-2.117-0.556-0.529-0.238-1.032-0.529-1.482-0.887-0.027-0.027-0.066-0.040-0.132-0.079 0.013 0.066 0.027 0.106 0.040 0.132 0.596 1.509 1.323 2.938 2.184 4.301 0.94 1.469 2.011 2.832 3.229 4.076s2.554 2.355 3.997 3.322c0.662 0.423 1.284 0.807 1.469 0.887z"></path>
<path fill="#f7a800" style="fill: var(--color34, #f7a800)" d="M3.523 6.644c1.694-0.979 3.467-1.747 5.333-2.303 2.541-0.754 5.121-1.112 7.768-1.059 1.231 0.027 3.282 0.225 3.626 0.357 0.013 0.027-0.013 0.040-0.040 0.040-0.119 0.053-0.252 0.093-0.371 0.146-2.184 0.913-3.732 2.832-4.182 5.161-0.066 0.384-0.106 0.767-0.119 1.151-0.013 0.582-0.066 1.165-0.238 1.734-0.582 2.051-2.263 3.652-4.341 4.129-2.726 0.622-5.479-0.728-6.67-3.255-0.066-0.146-0.119-0.291-0.146-0.437-0.198-0.86-0.344-1.72-0.45-2.594-0.119-0.966-0.185-1.932-0.185-2.898 0.013-0.066 0.013-0.106 0.013-0.172z"></path>
<path fill="#67b2e8" style="fill: var(--color35, #67b2e8)" d="M23.043 22.498c0.027-0.252 0.053-0.477 0.066-0.715 0.066-1.31-0.212-2.554-0.834-3.705-0.596-1.098-1.429-1.972-2.501-2.634-0.093-0.066-0.198-0.119-0.291-0.185-1.469-0.926-2.369-2.236-2.686-3.944-0.569-3.070 1.363-6.035 4.394-6.762 1.072-0.252 2.117-0.225 3.163 0.106 0.86 0.265 1.681 0.622 2.501 1.006 0.569 0.265 1.112 0.556 1.654 0.86 0.066 0.040 0.119 0.066 0.198 0.119 0 0.053 0.013 0.093 0.013 0.146 0 0.702-0.040 1.416-0.093 2.117-0.093 1.032-0.252 2.065-0.463 3.070-0.648 2.991-1.8 5.757-3.467 8.324-0.463 0.715-0.966 1.403-1.495 2.065-0.053 0.040-0.079 0.093-0.159 0.132z"></path>
<path fill="#00c4b3" style="fill: var(--color36, #00c4b3)" d="M16.122 28.413c-0.198-0.079-0.807-0.45-1.456-0.887-1.442-0.966-2.779-2.078-3.997-3.322s-2.303-2.607-3.229-4.076c-0.873-1.363-1.601-2.792-2.184-4.301-0.013-0.040-0.027-0.066-0.040-0.132 0.066 0.040 0.093 0.053 0.132 0.079 0.463 0.357 0.953 0.662 1.482 0.887 0.675 0.291 1.376 0.49 2.117 0.556 1.495 0.146 2.898-0.159 4.222-0.9 0.688-0.384 1.429-0.635 2.21-0.741 2.766-0.344 5.518 1.297 6.379 4.155 0.437 1.469 0.304 2.898-0.371 4.288-0.093 0.185-0.172 0.357-0.265 0.529-0.053 0.106-0.119 0.212-0.212 0.291-1.403 1.323-2.938 2.488-4.605 3.467-0.066 0.040-0.132 0.079-0.185 0.106z"></path>
</symbol>
<symbol id="icon-optimistic-ethereum" viewBox="0 0 32 32">
<path fill="#ff0420" style="fill: var(--color37, #ff0420)" d="M32 16c0 8.837-7.163 16-16 16s-16-7.163-16-16c0-8.837 7.163-16 16-16s16 7.163 16 16z"></path>
<path fill="#fff" style="fill: var(--color2, #fff)" d="M11.331 20.243c-0.049 0.002-0.106 0.003-0.164 0.003-0.814 0-1.568-0.253-2.19-0.684l0.013 0.008c-0.551-0.424-0.903-1.084-0.903-1.826 0-0.042 0.001-0.083 0.003-0.124l-0 0.006c0.004-0.232 0.026-0.456 0.064-0.674l-0.004 0.026q0.156-0.866 0.444-2.077 0.816-3.301 4.213-3.301c0.020-0 0.044-0.001 0.068-0.001 0.573 0 1.119 0.115 1.616 0.323l-0.028-0.010c0.476 0.19 0.868 0.505 1.147 0.904l0.005 0.008c0.263 0.385 0.421 0.86 0.421 1.372 0 0.024-0 0.048-0.001 0.072l0-0.004c-0.005 0.228-0.026 0.448-0.064 0.662l0.004-0.026q-0.18 1.068-0.432 2.077-0.42 1.644-1.452 2.461-1.031 0.803-2.76 0.803zM11.499 18.515c0.014 0 0.031 0.001 0.047 0.001 0.417 0 0.8-0.15 1.096-0.399l-0.003 0.002c0.343-0.312 0.587-0.728 0.682-1.198l0.002-0.014q0.276-1.128 0.42-1.969c0.031-0.154 0.048-0.331 0.048-0.512 0-0.002 0-0.003 0-0.005v0q0-1.092-1.14-1.092c-0.012-0-0.027-0.001-0.042-0.001-0.423 0-0.811 0.15-1.113 0.399l0.003-0.002c-0.337 0.315-0.576 0.73-0.67 1.198l-0.002 0.014q-0.216 0.804-0.432 1.969c-0.031 0.149-0.048 0.319-0.048 0.494 0 0.003 0 0.007 0 0.010v-0.001q0 1.104 1.152 1.104z"></path>
<path fill="#fff" style="fill: var(--color2, #fff)" d="M16.589 20.123c-0.004 0-0.010 0-0.015 0-0.075 0-0.142-0.032-0.189-0.084l-0-0c-0.027-0.043-0.043-0.096-0.043-0.152 0-0.023 0.003-0.045 0.008-0.066l-0 0.002 1.657-7.802c0.015-0.089 0.063-0.164 0.13-0.216l0.001-0.001c0.062-0.051 0.141-0.083 0.228-0.084h3.193c0.054-0.003 0.118-0.004 0.182-0.004 0.724 0 1.399 0.207 1.97 0.566l-0.015-0.009c0.496 0.328 0.818 0.883 0.818 1.514 0 0.029-0.001 0.058-0.002 0.087l0-0.004c-0.001 0.222-0.027 0.437-0.076 0.644l0.004-0.019c-0.14 0.834-0.581 1.546-1.205 2.035l-0.007 0.005q-0.9 0.66-2.473 0.66h-1.62l-0.552 2.629c-0.016 0.089-0.063 0.164-0.13 0.216l-0.001 0.001c-0.061 0.051-0.141 0.082-0.228 0.084h-0zM20.838 15.538c0.009 0 0.021 0 0.032 0 0.318 0 0.611-0.104 0.849-0.279l-0.004 0.003c0.256-0.189 0.438-0.465 0.503-0.784l0.001-0.008c0.021-0.107 0.034-0.232 0.036-0.359l0-0.001c0.001-0.014 0.002-0.030 0.002-0.046 0-0.189-0.079-0.36-0.206-0.482l-0-0c-0.165-0.123-0.373-0.197-0.598-0.197-0.035 0-0.069 0.002-0.103 0.005l0.004-0h-1.44l-0.456 2.149z"></path>
</symbol>
<symbol id="icon-polkadot" viewBox="0 0 32 32">
<path fill="#fff" style="fill: var(--color2, #fff)" d="M32 16c0 8.837-7.163 16-16 16s-16-7.163-16-16c0-8.837 7.163-16 16-16s16 7.163 16 16z"></path>
<path fill="#1e1e1e" style="fill: var(--color38, #1e1e1e)" d="M16.124 3.673c-5.15 0.021-9.318 4.19-9.34 9.338v0.002c0 1.085 0.18 2.129 0.513 3.101l-0.020-0.068c0.193 0.516 0.681 0.876 1.254 0.876 0.139 0 0.272-0.021 0.398-0.060l-0.009 0.003c0.504-0.197 0.854-0.678 0.854-1.242 0-0.141-0.022-0.277-0.063-0.405l0.003 0.009c-0.234-0.625-0.37-1.348-0.37-2.103 0-0.098 0.002-0.195 0.007-0.292l-0.001 0.014c0.113-3.633 3.085-6.535 6.734-6.535 3.721 0 6.738 3.016 6.738 6.737 0 3.577-2.788 6.503-6.309 6.724l-0.019 0.001s-1.311 0.080-1.963 0.16c-0.283 0.041-0.525 0.090-0.761 0.152l0.047-0.011c-0.016 0.016-0.037 0.026-0.062 0.026s-0.045-0.010-0.061-0.025v0l-0.001-0.001c-0.011-0.014-0.018-0.032-0.018-0.052s0.007-0.038 0.018-0.052l-0 0 0.203-1.107 1.231-5.537c0.018-0.081 0.028-0.173 0.028-0.268 0-0.707-0.573-1.28-1.28-1.28-0.612 0-1.124 0.43-1.25 1.004l-0.002 0.008s-2.929 13.555-2.929 13.678c-0.024 0.091-0.038 0.196-0.038 0.304 0 0.572 0.39 1.053 0.919 1.191l0.009 0.002c0.006 0.002 0.013 0.004 0.021 0.005l0.001 0h0.068c0.092 0.025 0.199 0.039 0.308 0.039 0.57 0 1.050-0.388 1.189-0.914l0.002-0.009c0.003-0.009 0.005-0.020 0.008-0.031l0-0.002c-0.001-0.009-0.001-0.020-0.001-0.031s0.001-0.021 0.002-0.032l-0 0.001c0.037-0.16 0.406-1.962 0.406-1.962 0.286-1.358 1.371-2.398 2.731-2.613l0.019-0.002c0.283-0.043 1.471-0.123 1.471-0.123 4.743-0.484 8.412-4.458 8.412-9.288 0-5.071-4.044-9.197-9.083-9.33l-0.012-0z"></path>
<path fill="#e6007a" style="fill: var(--color39, #e6007a)" d="M16.69 25.208c-0.095-0.021-0.205-0.033-0.317-0.033-0.747 0-1.372 0.527-1.522 1.229l-0.002 0.010c-0.002 0.008-0.003 0.016-0.005 0.024-0.023 0.099-0.036 0.213-0.036 0.33 0 0.739 0.518 1.358 1.21 1.513l0.010 0.002c0 0 0-0 0-0s0.002 0 0.003 0.001v0h0.043c0.108 0.027 0.231 0.043 0.358 0.043 0.715 0 1.316-0.493 1.48-1.157l0.002-0.010c0.002-0.006 0.003-0.012 0.005-0.019v-0.086c0.015-0.082 0.023-0.177 0.023-0.273 0-0.764-0.531-1.404-1.244-1.571l-0.011-0.002z"></path>
</symbol>
<symbol id="icon-solana" viewBox="0 0 41 32">
<path d="M10.51 22.054c0.177-0.177 0.42-0.28 0.679-0.28h23.42c0.428 0 0.642 0.517 0.34 0.819l-4.627 4.627c-0.177 0.177-0.42 0.28-0.679 0.28h-23.42c-0.428 0-0.642-0.517-0.34-0.819l4.627-4.627z"></path>
<path d="M10.51 4.78c0.185-0.177 0.428-0.28 0.679-0.28h23.42c0.428 0 0.642 0.517 0.34 0.819l-4.627 4.627c-0.177 0.177-0.42 0.28-0.679 0.28h-23.42c-0.428 0-0.642-0.517-0.34-0.819l4.627-4.627z"></path>
<path d="M30.323 13.362c-0.177-0.177-0.42-0.28-0.679-0.28h-23.42c-0.428 0-0.642 0.517-0.34 0.819l4.627 4.627c0.177 0.177 0.42 0.28 0.679 0.28h23.42c0.428 0 0.642-0.517 0.34-0.819l-4.627-4.627z"></path>
</symbol>
<symbol id="icon-stellar" viewBox="0 0 32 32">
<path fill="#fff" style="fill: var(--color2, #fff)" d="M32 16c0 8.837-7.163 16-16 16s-16-7.163-16-16c0-8.837 7.163-16 16-16s16 7.163 16 16z"></path>
<path fill="#000" style="fill: var(--color32, #000)" d="M24.284 8.791l-16.201 8.252c-0.043-0.311-0.067-0.67-0.067-1.035 0-4.415 3.579-7.994 7.994-7.994 1.432 0 2.776 0.376 3.938 1.036l-0.040-0.021 1.828-0.932c-1.588-1.164-3.581-1.863-5.737-1.863-5.393 0-9.766 4.372-9.766 9.766 0 0 0 0.001 0 0.001v-0q0 0.373 0.028 0.743c0.003 0.040 0.005 0.087 0.005 0.134 0 0.687-0.39 1.282-0.96 1.578l-0.010 0.005-0.839 0.428v1.995l23.082-11.762v-1.994z"></path>
<path fill="#000" style="fill: var(--color32, #000)" d="M27.541 11.119l-23.082 11.756v1.993l19.462-9.917c0.043 0.315 0.068 0.68 0.068 1.051v0c-0.003 4.413-3.581 7.99-7.995 7.99-1.437 0-2.784-0.379-3.95-1.042l0.039 0.021-0.098 0.052-1.725 0.879c1.588 1.164 3.581 1.863 5.737 1.863 5.393 0 9.764-4.371 9.766-9.763v-0c0-0.251-0.010-0.502-0.028-0.75-0.003-0.040-0.005-0.087-0.005-0.134 0-0.687 0.389-1.282 0.959-1.578l0.010-0.005 0.84-0.428z"></path>
</symbol>
<symbol id="icon-terra" viewBox="0 0 32 32">
<path fill="#172852" style="fill: var(--color40, #172852)" d="M32 16c0 8.837-7.163 16-16 16s-16-7.163-16-16c0-8.837 7.163-16 16-16s16 7.163 16 16z"></path>
<path fill="#ffd83d" style="fill: var(--color41, #ffd83d)" d="M12.888 7.15c1.874-0.701 3.982-0.702 5.891-0.126 2.485 0.771 4.582 2.646 5.678 5 0.302 0.67 0.592 1.37 0.621 2.115-1.397-0.81-2.928-1.334-4.462-1.813-2.454-0.885-5.024-1.499-7.347-2.715-0.541-0.323-1.23-0.654-1.378-1.328-0.059-0.582 0.557-0.907 0.997-1.133z"></path>
<path fill="#ffd83d" style="fill: var(--color41, #ffd83d)" d="M7.232 12.814c0.542-1.472 1.432-2.838 2.64-3.851 0.307 2.526 1.382 4.968 3.158 6.805 2.13 2.213 5.163 3.571 8.25 3.52 1.226 0.038 2.424-0.245 3.619-0.474-1.176 4.25-5.834 7.070-10.149 6.392-2.605-0.333-5.010-1.875-6.461-4.053-1.637-2.406-2.050-5.602-1.058-8.339z"></path>
<path fill="#ff6f03" style="fill: var(--color42, #ff6f03)" d="M20.616 12.326c1.534 0.478 3.066 1.003 4.462 1.813l0.094 0.050c0.13 0.974 0.224 1.968 0.051 2.944-0.702-0.298-1.272-0.821-1.867-1.283-1.146-0.954-2.315-2.045-2.741-3.523z"></path>
</symbol>
<symbol id="icon-tezos" viewBox="0 0 24 32">
<path fill="#2c7df7" style="fill: var(--color43, #2c7df7)" d="M15.18 32q-3.425 0-5-1.65c-0.94-0.901-1.535-2.155-1.57-3.549l-0-0.006c-0.001-0.020-0.001-0.044-0.001-0.068 0-0.405 0.102-0.786 0.282-1.119l-0.006 0.012c0.182-0.314 0.436-0.568 0.74-0.745l0.010-0.005c0.34-0.173 0.742-0.275 1.168-0.275s0.827 0.102 1.182 0.282l-0.015-0.007c0.313 0.182 0.566 0.436 0.741 0.741l0.005 0.010c0.18 0.321 0.286 0.705 0.286 1.113 0 0.022-0 0.044-0.001 0.066l0-0.003c0.001 0.028 0.002 0.061 0.002 0.093 0 0.48-0.15 0.924-0.407 1.289l0.005-0.007c-0.232 0.324-0.558 0.567-0.937 0.692l-0.013 0.004c0.369 0.467 0.888 0.802 1.483 0.932l0.017 0.003c0.612 0.184 1.315 0.292 2.043 0.295h0.002c0.012 0 0.026 0 0.040 0 0.945 0 1.823-0.288 2.551-0.78l-0.016 0.010c0.779-0.555 1.366-1.334 1.671-2.243l0.009-0.032c0.349-0.97 0.551-2.088 0.551-3.254 0-0.053-0-0.106-0.001-0.159l0 0.008c0.002-0.071 0.003-0.154 0.003-0.238 0-1.187-0.221-2.322-0.625-3.366l0.022 0.064c-0.334-0.921-0.939-1.677-1.719-2.19l-0.016-0.010c-0.699-0.449-1.552-0.715-2.467-0.715-0.011 0-0.023 0-0.034 0h0.002c-0.812 0.071-1.55 0.335-2.184 0.746l0.018-0.011-1.605 0.805v-0.805l7.215-9.679h-10v10.044c-0.002 0.042-0.003 0.091-0.003 0.14 0 0.71 0.206 1.372 0.561 1.93l-0.009-0.015c0.347 0.492 0.913 0.809 1.553 0.809 0.045 0 0.089-0.002 0.133-0.005l-0.006 0c0.629-0.013 1.205-0.231 1.666-0.59l-0.006 0.005c0.542-0.4 1.003-0.873 1.377-1.411l0.013-0.020c0.036-0.099 0.098-0.181 0.179-0.239l0.001-0.001c0.064-0.056 0.149-0.090 0.241-0.090h0c0.181 0.017 0.343 0.090 0.471 0.201l-0.001-0.001c0.158 0.176 0.255 0.41 0.255 0.667 0 0.004-0 0.009-0 0.013v-0.001c-0.022 0.192-0.054 0.362-0.096 0.527l0.006-0.027c-0.368 0.877-0.958 1.599-1.7 2.119l-0.016 0.010c-0.668 0.458-1.494 0.731-2.384 0.731-0.008 0-0.015-0-0.023-0h0.001q-3.248 0-4.5-1.28c-0.774-0.848-1.248-1.982-1.248-3.226 0-0.096 0.003-0.192 0.008-0.287l-0.001 0.013v-10.019h-5.086v-1.866h5.11v-4.255l-1.17-1.171v-0.954h3.395l1.275 0.66v5.72l13.21-0.040 1.315 1.32-8.1 8.139c0.447-0.186 0.966-0.317 1.508-0.368l0.022-0.002c1.095 0.049 2.108 0.357 2.993 0.862l-0.033-0.017c1.064 0.513 1.93 1.291 2.535 2.251l0.015 0.025c0.525 0.785 0.923 1.704 1.14 2.692l0.010 0.053c0.163 0.702 0.263 1.511 0.275 2.342l0 0.009c0 0.010 0 0.023 0 0.035 0 1.573-0.369 3.059-1.026 4.377l0.026-0.057c-0.641 1.318-1.682 2.359-2.962 2.983l-0.038 0.017c-1.252 0.631-2.728 1-4.291 1-0.010 0-0.021-0-0.031-0h0.002z"></path>
</symbol>
<symbol id="icon-xrp" viewBox="0 0 32 32">
<path fill="#fff" style="fill: var(--color2, #fff)" d="M32 16c0 8.837-7.163 16-16 16s-16-7.163-16-16c0-8.837 7.163-16 16-16s16 7.163 16 16z"></path>
<path fill="#23292f" style="fill: var(--color44, #23292f)" d="M24.154 6.449h3.334l-6.938 6.87c-1.17 1.153-2.777 1.865-4.55 1.865s-3.38-0.712-4.551-1.866l0.001 0.001-6.941-6.87h3.337l5.271 5.218c0.741 0.73 1.758 1.181 2.881 1.181s2.141-0.451 2.882-1.182l-0 0z"></path>
<path fill="#23292f" style="fill: var(--color44, #23292f)" d="M7.803 25.551h-3.336l6.983-6.912c1.17-1.153 2.777-1.865 4.55-1.865s3.381 0.712 4.551 1.866l-0.001-0.001 6.983 6.913h-3.334l-5.316-5.261c-0.741-0.73-1.758-1.181-2.881-1.181s-2.141 0.451-2.882 1.182l0-0z"></path>
</symbol>
<symbol id="icon-transak" viewBox="0 0 32 32">
<path fill="#000" style="fill: var(--color32, #000)" d="M31.076 16c0 8.326-6.75 15.076-15.076 15.076s-15.076-6.75-15.076-15.076c0-8.326 6.75-15.076 15.076-15.076s15.076 6.75 15.076 15.076z"></path>
<path fill="#fff" style="fill: var(--color2, #fff)" d="M25.52 15.079l-4.266-4.266c-0.005-0.005-0.012-0.009-0.017-0.014-0.028-0.027-0.057-0.051-0.086-0.075-0.021-0.017-0.043-0.031-0.065-0.047-0.010-0.007-0.020-0.013-0.031-0.019-0.178-0.117-0.396-0.187-0.631-0.187-0.369 0-0.697 0.173-0.909 0.442l-0.002 0.002-6.622 6.623v-5.897c-0.015-0.634-0.533-1.143-1.169-1.143s-1.154 0.508-1.169 1.141l-0 0.001v5.898l-2.418-2.418c-0.208-0.194-0.489-0.314-0.797-0.314-0.646 0-1.169 0.524-1.169 1.169 0 0.308 0.119 0.589 0.314 0.798l-0.001-0.001 4.413 4.415c0.027 0.027 0.056 0.053 0.086 0.078l0.002 0.002c0.027 0.022 0.057 0.044 0.088 0.065l0.004 0.003c0.149 0.1 0.329 0.167 0.523 0.187l0.005 0h0.005c0.038 0.004 0.075 0.006 0.113 0.006v0c0.006 0 0.012 0 0.017 0 0.031 0 0.062 0 0.095-0.004l0.023-0.003c0.031-0.003 0.060-0.008 0.090-0.013l0.014-0.003c0.033-0.007 0.066-0.015 0.098-0.024l0.005-0.002c0.036-0.011 0.070-0.023 0.105-0.037v0 0c0.055-0.024 0.102-0.047 0.146-0.074l-0.006 0.003 0.026-0.016c0.048-0.030 0.090-0.059 0.129-0.092l-0.002 0.002c0.004-0.003 0.008-0.007 0.011-0.010 0.025-0.021 0.050-0.043 0.073-0.066l6.712-6.708v5.882c0 0.646 0.524 1.169 1.169 1.169s1.169-0.524 1.169-1.169v0-5.897l2.27 2.27c0.215 0.233 0.521 0.378 0.861 0.378 0.646 0 1.17-0.524 1.17-1.17 0-0.34-0.145-0.647-0.377-0.86l-0.001-0.001z"></path>
</symbol>
</defs>
</svg>
