<!-- Generated by IcoMoon.io -->
<svg version="1.1" xmlns="http://www.w3.org/2000/svg" width="29" height="32" viewBox="0 0 29 32">
<title>arbitrum-one</title>
<path fill="#1d86cc" d="M28.999 21.827c0 0 0 0 0 0 0 1.597-0.865 2.991-2.151 3.742l-0.021 0.011-10.171 5.845c-0.619 0.362-1.363 0.575-2.156 0.575s-1.537-0.214-2.177-0.587l0.021 0.011-10.171-5.845c-1.307-0.761-2.172-2.156-2.172-3.753v-11.654c0-0 0-0 0-0 0-1.597 0.865-2.991 2.151-3.742l0.021-0.011 10.171-5.845c0.619-0.362 1.363-0.575 2.156-0.575s1.538 0.214 2.177 0.587l-0.021-0.011 10.171 5.845c1.307 0.761 2.172 2.156 2.172 3.753v0z"></path>
<path fill="#fff" d="M13.246 2.203l-10.042 5.8c-0.756 0.442-1.255 1.25-1.255 2.174 0 0 0 0.001 0 0.001v-0l0.006 11.612c0.001 0.923 0.499 1.73 1.242 2.165l0.012 0.006 10.053 5.812c0.36 0.211 0.793 0.336 1.255 0.336s0.895-0.125 1.267-0.343l-0.012 0.006 10.042-5.798c0.756-0.442 1.255-1.25 1.255-2.174 0-0 0-0.001 0-0.001v0l-0.006-11.612c-0.001-0.923-0.499-1.729-1.242-2.165l-0.012-0.006-10.053-5.812c-0.36-0.211-0.793-0.336-1.255-0.336s-0.895 0.125-1.267 0.343l0.012-0.006z"></path>
<path fill="#2d374b" d="M9.932 25.848c0.017-0.079 0.051-0.149 0.099-0.207l-0.001 0.001q4.506-7.645 9.013-15.29c0.042-0.071 0.081-0.143 0.116-0.207-0.026-0.046-0.056-0.037-0.082-0.037-1.284 0.005-2.567 0.013-3.852 0.011-0.001-0-0.003-0-0.005-0-0.113 0-0.21 0.070-0.25 0.169l-0.001 0.002q-1.453 2.402-2.909 4.803-3.085 5.090-6.171 10.179c-0.018 0.030-0.037 0.059-0.053 0.090-0.036 0.070-0.078 0.081-0.152 0.038-0.319-0.189-0.642-0.371-0.981-0.566l9.154-14.682c-0.020-0.060-0.060-0.045-0.091-0.046-0.491-0.015-0.981-0.036-1.472-0.040-0.048-0.002-0.104-0.002-0.161-0.002-0.668 0-1.308 0.12-1.899 0.341l0.038-0.012c-0.6 0.226-1.090 0.63-1.418 1.146l-0.007 0.012q-2.509 3.913-5.037 7.814c-0.026 0.041-0.055 0.081-0.082 0.122-0.097 0-0.082-0.080-0.091-0.135-0.005-0.049-0.008-0.107-0.008-0.165 0-0.031 0.001-0.061 0.003-0.091l-0 0.004c0-2.877 0.010-5.753-0.009-8.629-0.001-0.023-0.002-0.049-0.002-0.076 0-0.493 0.288-0.919 0.705-1.119l0.007-0.003c2.212-1.261 4.41-2.548 6.614-3.822 0.984-0.569 1.971-1.132 2.948-1.712 0.174-0.118 0.39-0.189 0.621-0.189s0.447 0.071 0.625 0.192l-0.004-0.002c1.796 1.054 3.608 2.084 5.414 3.123q2.043 1.176 4.087 2.348c0.098 0.056 0.193 0.115 0.291 0.17 0.301 0.162 0.502 0.475 0.502 0.835 0 0.018-0.001 0.037-0.002 0.055l0-0.002q0.004 4.694 0 9.387c0.001 0.015 0.002 0.032 0.002 0.050 0 0.064-0.010 0.125-0.028 0.183l0.001-0.004c-0.108 0.105-0.147-0.013-0.187-0.068-0.162-0.228-0.308-0.469-0.459-0.705q-1.812-2.835-3.636-5.665c-0.409-0.637-0.822-1.272-1.227-1.912-0.094-0.149-0.111-0.152-0.206 0.009q-0.915 1.548-1.829 3.097c-0.027 0.045-0.043 0.1-0.043 0.158 0 0.081 0.030 0.154 0.080 0.21l-0-0q0.754 1.216 1.504 2.433l2.566 4.151q0.519 0.841 1.041 1.681c0.062 0.072 0.101 0.166 0.103 0.269v0c-0.069 0.138-0.214 0.177-0.335 0.24-0.186 0.136-0.399 0.25-0.628 0.331l-0.018 0.006c-0.124-0.031-0.168-0.143-0.227-0.235-0.794-1.239-1.579-2.485-2.368-3.727-0.812-1.277-1.62-2.558-2.435-3.834-0.105-0.164-0.121-0.165-0.219 0-0.709 1.193-1.409 2.392-2.12 3.584-0.032 0.049-0.051 0.109-0.051 0.173 0 0.075 0.026 0.144 0.069 0.198l-0.001-0.001c0.958 1.476 1.893 2.965 2.841 4.448 0.264 0.413 0.53 0.825 0.79 1.242 0.051 0.081 0.12 0.162 0.074 0.271-0.233 0.183-0.495 0.348-0.774 0.486l-0.026 0.012q-1.327 0.772-2.656 1.543c-0.134 0.088-0.299 0.14-0.476 0.14s-0.342-0.052-0.479-0.142l0.003 0.002q-1.957-1.132-3.922-2.254c-0.092-0.037-0.169-0.098-0.225-0.174l-0.001-0.001z"></path>
<path fill="#96bedc" d="M25.368 19.914c0.002-0.077 0.006-0.154 0.006-0.231q0-4.683 0.003-9.365c0.001-0.017 0.002-0.037 0.002-0.057 0-0.377-0.214-0.704-0.528-0.866l-0.005-0.003q-4.917-2.819-9.828-5.651c-0.14-0.093-0.313-0.148-0.498-0.148-0.183 0-0.354 0.054-0.497 0.147l0.004-0.002q-2.727 1.585-5.46 3.161-2.193 1.27-4.386 2.54c-0.295 0.155-0.493 0.46-0.493 0.811 0 0.018 0.001 0.035 0.002 0.053l-0-0.002q0.011 4.493 0.013 8.987c0 0.067-0.027 0.141 0.031 0.2-0.346 0.577-0.727 1.131-1.091 1.695q-0.274 0.424-0.55 0.846c-0.029 0.045-0.063 0.087-0.122 0.167-0.004-0.094-0.009-0.146-0.009-0.198q0-5.926 0.002-11.851c-0-0.016-0.001-0.034-0.001-0.053 0-0.901 0.499-1.685 1.236-2.092l0.012-0.006c1.271-0.755 2.559-1.482 3.839-2.223q1.62-0.938 3.235-1.881c1.006-0.584 2.002-1.186 3.026-1.739 0.351-0.199 0.771-0.316 1.219-0.316 0.493 0 0.953 0.143 1.341 0.389l-0.010-0.006c0.822 0.467 1.641 0.942 2.461 1.413q1.157 0.666 2.314 1.333 1.066 0.614 2.133 1.226 1.058 0.607 2.115 1.214c0.31 0.178 0.62 0.356 0.928 0.538 0.677 0.388 1.156 1.054 1.286 1.838l0.002 0.015c0.010 0.073 0.016 0.158 0.016 0.243 0 0.033-0.001 0.065-0.003 0.097l0-0.005q0 5.831 0.002 11.662c0 0.004 0 0.009 0 0.014 0 0.771-0.349 1.461-0.897 1.92l-0.004 0.003c-0.151 0.116-0.321 0.222-0.502 0.311l-0.018 0.008q-1.58 0.922-3.164 1.836-1.683 0.974-3.368 1.944-1.619 0.938-3.235 1.883c-0.253 0.172-0.551 0.3-0.872 0.363l-0.015 0.003c-0.144 0.029-0.31 0.046-0.479 0.046-0.392 0-0.763-0.090-1.094-0.251l0.015 0.007c-0.537-0.288-1.060-0.601-1.59-0.904q-1.067-0.612-2.132-1.226-0.301-0.173-0.602-0.344c-0.074-0.042-0.124-0.085-0.067-0.181 0.266-0.445 0.527-0.893 0.792-1.339 0.009-0.016 0.033-0.024 0.050-0.036 0.28 0.132 0.514 0.262 0.738 0.407l-0.024-0.015q1.741 0.995 3.476 2.001c0.124 0.080 0.276 0.127 0.438 0.127 0.169 0 0.326-0.051 0.456-0.138l-0.003 0.002c1.099-0.645 2.203-1.28 3.305-1.919 0.055-0.032 0.11-0.060 0.166-0.090 0.103-0.131 0.238-0.231 0.395-0.29l0.006-0.002c0.995-0.57 1.984-1.152 2.979-1.721 0.083-0.047 0.158-0.121 0.266-0.108l0.975-0.565c0.059-0.125 0.187-0.165 0.293-0.226 0.491-0.283 0.977-0.574 1.472-0.849 0.269-0.144 0.449-0.423 0.449-0.744 0-0.018-0.001-0.036-0.002-0.053l0 0.002c0.005-0.496 0-0.993 0.002-1.49-0.004-0.020-0.006-0.044-0.006-0.068 0-0.073 0.021-0.14 0.058-0.197l-0.001 0.001z"></path>
<path fill="#28a0f0" d="M25.369 19.914c0.003 0.616 0.016 1.234 0.002 1.849 0 0.006 0 0.013 0 0.021 0 0.295-0.164 0.552-0.405 0.685l-0.004 0.002c-0.621 0.351-1.23 0.723-1.856 1.065-0.249-0.454-0.537-0.887-0.809-1.329q-2.121-3.438-4.246-6.871c-0.085-0.137-0.163-0.28-0.257-0.409-0.030-0.036-0.048-0.082-0.048-0.132s0.018-0.097 0.048-0.133l-0 0c0.338-0.566 0.671-1.135 1.006-1.703l0.929-1.576c0.017-0.038 0.045-0.068 0.081-0.086l0.001-0q0.243 0.374 0.487 0.752 1.466 2.283 2.932 4.566l1.988 3.098c0.038 0.079 0.089 0.146 0.151 0.201l0.001 0.001z"></path>
<path fill="#28a0f0" d="M22.131 24.1c-0.404 0.265-0.832 0.49-1.248 0.736-0.754 0.443-1.513 0.879-2.27 1.317-0.043 0.024-0.087 0.047-0.128 0.071-0.010-0.073-0.041-0.138-0.087-0.189l0 0q-1.011-1.589-2.022-3.177-0.831-1.304-1.666-2.606c-0.039-0.046-0.063-0.106-0.063-0.172 0-0.057 0.018-0.11 0.048-0.154l-0.001 0.001q1.117-1.881 2.224-3.768c0.018-0.029 0.032-0.063 0.075-0.072 0.061 0.014 0.075 0.074 0.104 0.119l4.025 6.341c0.285 0.45 0.57 0.901 0.857 1.35 0.038 0.079 0.088 0.145 0.149 0.201l0 0z"></path>
</svg>
