<!-- Generated by IcoMoon.io -->
<svg version="1.1" xmlns="http://www.w3.org/2000/svg" width="32" height="32" viewBox="0 0 32 32">
<title>assets-crypto</title>
<path d="M12.468 24.942c-6.894 0-12.468-5.574-12.468-12.468s5.574-12.468 12.468-12.468c6.894 0 12.468 5.574 12.468 12.468s-5.574 12.468-12.468 12.468z"></path>
<path d="M25.639 11.587c0.781 0.548 1.486 1.203 2.092 1.948 1.099 1.349 1.841 2.953 2.159 4.663s0.203 3.473-0.335 5.128c-0.539 1.654-1.484 3.147-2.749 4.342s-2.809 2.053-4.492 2.497c-1.682 0.444-3.449 0.458-5.139 0.043s-3.248-1.249-4.532-2.422c-0.713-0.652-1.33-1.397-1.833-2.213-0.647-0.081-1.279-0.208-1.893-0.379 0.659 1.39 1.583 2.644 2.725 3.687 1.468 1.341 3.248 2.293 5.179 2.767s3.949 0.458 5.872-0.049 3.687-1.488 5.133-2.853c1.445-1.365 2.525-3.071 3.141-4.961s0.748-3.905 0.384-5.86c-0.364-1.954-1.213-3.787-2.468-5.328-0.973-1.195-2.166-2.187-3.511-2.923 0.134 0.622 0.224 1.26 0.267 1.912z"></path>
<path d="M8.543 24.314c0.587 0.194 1.194 0.346 1.817 0.452-0.206-0.412-0.386-0.838-0.536-1.276l-1.404 0.483c0.039 0.114 0.080 0.228 0.123 0.341z"></path>
<path d="M24.516 9.25c-0.116-0.052-0.232-0.101-0.349-0.15l-0.562 1.374c0.433 0.177 0.853 0.383 1.256 0.616-0.069-0.629-0.185-1.243-0.344-1.84z"></path>
</svg>
