<!-- Generated by IcoMoon.io -->
<svg version="1.1" xmlns="http://www.w3.org/2000/svg" width="32" height="32" viewBox="0 0 32 32">
<title>avalanche</title>
<path fill="#fff" d="M6.106 5.489h19.745v17.957h-19.745v-17.957z"></path>
<path fill="#e84142" d="M31.968 16c0 8.825-7.154 15.979-15.979 15.979s-15.979-7.154-15.979-15.979c0-8.825 7.154-15.979 15.979-15.979s15.979 7.154 15.979 15.979zM11.461 22.359c0.73 0 1.095 0 1.421-0.090 0.357-0.106 0.683-0.294 0.954-0.554 0.249-0.237 0.428-0.551 0.783-1.171l4.032-7.128c0.357-0.624 0.534-0.938 0.612-1.268 0.086-0.357 0.086-0.734 0-1.091-0.078-0.327-0.256-0.639-0.608-1.254l-1.582-2.762c-0.326-0.573-0.491-0.86-0.699-0.966-0.224-0.114-0.491-0.114-0.714 0-0.208 0.106-0.373 0.393-0.699 0.966l-7.657 13.496c-0.322 0.565-0.483 0.848-0.471 1.079 0.016 0.251 0.145 0.479 0.357 0.616 0.196 0.126 0.518 0.126 1.17 0.126h3.101zM19.293 22.359h4.443c0.656 0 0.985 0 1.182-0.129 0.212-0.137 0.345-0.369 0.357-0.62 0.011-0.224-0.146-0.496-0.455-1.028-0.011-0.018-0.021-0.037-0.032-0.055l-2.251-3.85c-0.313-0.529-0.471-0.796-0.673-0.899-0.224-0.114-0.487-0.114-0.71 0-0.204 0.106-0.369 0.385-0.695 0.946l-2.225 3.821c-0.325 0.56-0.487 0.84-0.475 1.070 0.016 0.251 0.145 0.483 0.357 0.62 0.192 0.126 0.522 0.126 1.178 0.126z"></path>
</svg>
