<!-- Generated by IcoMoon.io -->
<svg version="1.1" xmlns="http://www.w3.org/2000/svg" width="27" height="32" viewBox="0 0 27 32">
<title>binance-smart-chain</title>
<path fill="#f3ba2f" d="M16.741 26.573v3.588l-3.129 1.839-3.040-1.839v-3.588l3.040 1.839zM0 14.161l3.040 1.839v6.154l5.234 3.129v3.588l-8.274-4.879zM27.225 14.161v9.846l-8.363 4.879v-3.588l5.234-3.129v-6.154zM18.847 9.283l3.129 1.839v3.588l-5.234 3.129v6.243l-3.040 1.839-3.025-1.839v-6.258l-5.427-3.129v-3.588l3.129-1.839 5.234 3.129zM5.249 17.275l3.040 1.839v3.588l-3.040-1.839zM21.976 17.275v3.588l-3.040 1.839v-3.588zM3.040 6.154l3.129 1.839-3.129 1.839v3.588l-3.040-1.839v-3.588zM24.185 6.154l3.129 1.839v3.589l-3.129 1.839v-3.588l-3.040-1.839zM13.613 6.154l3.129 1.839-3.129 1.839-3.040-1.839zM13.613 0l8.363 4.879-3.040 1.839-5.234-3.129-5.338 3.129-3.040-1.839z"></path>
</svg>
