<!-- Generated by IcoMoon.io -->
<svg version="1.1" xmlns="http://www.w3.org/2000/svg" width="32" height="32" viewBox="0 0 32 32">
<title>binance</title>
<path fill="#f3ba2f" d="M9.468 13.53l6.013-6.013 6.016 6.016 3.499-3.499-9.515-9.515-9.512 9.512 3.499 3.499z"></path>
<path fill="#f3ba2f" d="M6.998 16l-3.499-3.499-3.499 3.499 3.499 3.499 3.499-3.499z"></path>
<path fill="#f3ba2f" d="M9.468 18.471l6.013 6.013 6.016-6.016 3.501 3.497-0.002 0.002-9.515 9.515-9.517-9.517 3.504-3.494z"></path>
<path fill="#f3ba2f" d="M27.464 19.5l3.499-3.499-3.499-3.499-3.499 3.499 3.499 3.499z"></path>
<path fill="#f3ba2f" d="M19.030 15.998h0.001l-3.55-3.55-3.552 3.552 0.005 0.005 3.547 3.547 3.552-3.552-0.003-0.002z"></path>
</svg>
