<!-- Generated by IcoMoon.io -->
<svg version="1.1" xmlns="http://www.w3.org/2000/svg" width="32" height="32" viewBox="0 0 32 32">
<title>bitcoin</title>
<path fill="#f7931a" d="M31.517 19.871c-1.794 7.017-8.060 12.122-15.518 12.122-8.833 0-15.994-7.161-15.994-15.994s7.161-15.994 15.994-15.994c1.373 0 2.707 0.173 3.979 0.499l-0.111-0.024c7.019 1.793 12.126 8.060 12.126 15.521 0 1.375-0.173 2.709-0.5 3.982l0.024-0.111z"></path>
<path fill="#fff" d="M23.053 13.721c0.318-2.129-1.303-3.273-3.519-4.037l0.719-2.884-1.755-0.438-0.7 2.808c-0.462-0.115-0.935-0.223-1.406-0.331l0.705-2.827-1.754-0.438-0.719 2.883c-0.382-0.087-0.757-0.173-1.121-0.264l0.002-0.009-2.421-0.604-0.467 1.875s1.303 0.299 1.275 0.317c0.466 0.057 0.823 0.451 0.823 0.927 0 0.033-0.002 0.066-0.005 0.098l0-0.004-0.819 3.286c0.073 0.018 0.133 0.038 0.192 0.062l-0.010-0.003c-0.059-0.014-0.121-0.031-0.186-0.046l-1.148 4.605c-0.085 0.262-0.326 0.447-0.61 0.447-0.069 0-0.136-0.011-0.199-0.031l0.005 0.001c0.018 0.026-1.276-0.318-1.276-0.318l-0.871 2.010 2.284 0.569c0.425 0.106 0.842 0.218 1.251 0.323l-0.726 2.917 1.752 0.438 0.719-2.886c0.479 0.13 0.943 0.25 1.399 0.363l-0.717 2.872 1.755 0.438 0.726-2.912c2.993 0.566 5.244 0.337 6.192-2.369 0.764-2.18-0.038-3.437-1.613-4.258 1.146-0.265 2.011-1.019 2.241-2.578zM19.043 19.345c-0.542 2.18-4.212 1.001-5.403 0.708l0.964-3.864c1.188 0.296 5.005 0.883 4.438 3.157zM19.586 13.689c-0.495 1.983-3.55 0.977-4.541 0.728l0.874-3.504c0.99 0.246 4.181 0.707 3.665 2.776z"></path>
</svg>
