<!-- Generated by IcoMoon.io -->
<svg version="1.1" xmlns="http://www.w3.org/2000/svg" width="32" height="32" viewBox="0 0 32 32">
<title>cardano</title>
<path fill="#fff" d="M32 16c0 8.837-7.163 16-16 16s-16-7.163-16-16c0-8.837 7.163-16 16-16s16 7.163 16 16z"></path>
<path fill="#0033ad" d="M10.758 15.923c-0.002 0.026-0.002 0.055-0.002 0.085 0 0.832 0.651 1.513 1.471 1.561l0.004 0h0.093c0.861-0.003 1.557-0.702 1.557-1.563 0-0.863-0.7-1.563-1.563-1.563-0.833 0-1.514 0.653-1.56 1.475l-0 0.004z"></path>
<path fill="#0033ad" d="M4.927 15.52c-0.008-0.001-0.018-0.001-0.028-0.001-0.279 0-0.505 0.226-0.505 0.505s0.226 0.505 0.505 0.505c0.269 0 0.489-0.211 0.504-0.476l0-0.001c0.001-0.009 0.001-0.020 0.001-0.031 0-0.269-0.211-0.488-0.476-0.501l-0.001-0z"></path>
<path fill="#0033ad" d="M10.659 6.849c0.166-0.085 0.278-0.256 0.278-0.452 0-0.28-0.227-0.507-0.507-0.507-0.084 0-0.162 0.020-0.232 0.056l0.003-0.001c-0.166 0.085-0.278 0.256-0.278 0.452 0 0.28 0.227 0.507 0.507 0.507 0.084 0 0.162-0.020 0.232-0.056l-0.003 0.001z"></path>
<path fill="#0033ad" d="M12.243 9.616c0.257-0.131 0.43-0.394 0.43-0.696 0-0.43-0.349-0.779-0.779-0.779s-0.779 0.349-0.779 0.779c0 0.128 0.031 0.248 0.085 0.354l-0.002-0.004c0.132 0.256 0.394 0.429 0.697 0.429 0.127 0 0.247-0.030 0.353-0.084l-0.004 0.002z"></path>
<path fill="#0033ad" d="M6.908 11.516c0.099 0.066 0.222 0.105 0.353 0.105 0.356 0 0.644-0.288 0.644-0.644s-0.288-0.644-0.644-0.644c-0.224 0-0.422 0.115-0.537 0.289l-0.002 0.002c-0.067 0.1-0.106 0.222-0.106 0.354 0 0.224 0.115 0.422 0.29 0.536l0.002 0.002z"></path>
<path fill="#0033ad" d="M7.855 15.242c-0.013-0.001-0.028-0.001-0.043-0.001-0.431 0-0.781 0.35-0.781 0.781s0.35 0.781 0.781 0.781c0.416 0 0.756-0.325 0.78-0.736l0-0.002c0.001-0.013 0.001-0.028 0.001-0.043 0-0.416-0.325-0.756-0.736-0.78l-0.002-0z"></path>
<path fill="#0033ad" d="M6.994 20.484c-0.212 0.109-0.354 0.326-0.354 0.576 0 0.356 0.289 0.645 0.645 0.645s0.645-0.289 0.645-0.645c0-0.106-0.026-0.206-0.071-0.295l0.002 0.004c-0.109-0.211-0.327-0.353-0.577-0.353-0.106 0-0.205 0.025-0.293 0.070l0.004-0.002z"></path>
<path fill="#0033ad" d="M10.027 13.626c0.141 0.094 0.315 0.149 0.501 0.149 0.506 0 0.917-0.41 0.917-0.917s-0.41-0.917-0.917-0.917c-0.32 0-0.602 0.164-0.766 0.412l-0.002 0.003c-0.095 0.141-0.151 0.316-0.151 0.503 0 0.32 0.165 0.601 0.414 0.764l0.004 0.002z"></path>
<path fill="#0033ad" d="M19.652 9.554c0.121 0.081 0.27 0.129 0.43 0.129 0.432 0 0.782-0.35 0.782-0.782s-0.35-0.782-0.782-0.782c-0.272 0-0.511 0.139-0.651 0.349l-0.002 0.003c-0.083 0.121-0.132 0.271-0.132 0.433 0 0.272 0.14 0.511 0.352 0.649l0.003 0.002z"></path>
<path fill="#0033ad" d="M21.249 6.799c0.077 0.050 0.171 0.080 0.273 0.080 0.279 0 0.506-0.226 0.506-0.506s-0.226-0.506-0.506-0.506c-0.175 0-0.329 0.089-0.42 0.224l-0.001 0.002c-0.049 0.078-0.079 0.173-0.079 0.275 0 0.178 0.089 0.335 0.225 0.429l0.002 0.001z"></path>
<path fill="#0033ad" d="M19.77 14.431c-0.036-0.003-0.077-0.005-0.119-0.005-0.863 0-1.563 0.7-1.563 1.563 0 0.844 0.669 1.532 1.506 1.561l0.003 0h0.087c0.861-0.001 1.559-0.699 1.559-1.561 0-0.831-0.649-1.51-1.468-1.558l-0.004-0z"></path>
<path fill="#0033ad" d="M12.757 13.515c0.264 0.513 0.789 0.857 1.395 0.857 0.864 0 1.564-0.7 1.564-1.564s-0.7-1.564-1.564-1.564c-0.256 0-0.498 0.061-0.711 0.17l0.009-0.004c-0.515 0.264-0.861 0.791-0.861 1.399 0 0.257 0.062 0.5 0.172 0.715l-0.004-0.009z"></path>
<path fill="#0033ad" d="M25.006 11.516c0.208-0.11 0.347-0.324 0.347-0.571 0-0.355-0.288-0.644-0.644-0.644s-0.644 0.288-0.644 0.644c0 0.104 0.025 0.203 0.069 0.29l-0.002-0.004c0.111 0.212 0.33 0.353 0.581 0.353 0.106 0 0.207-0.025 0.295-0.070l-0.004 0.002z"></path>
<path fill="#0033ad" d="M21.044 12.011c-0.302 0.154-0.506 0.463-0.506 0.82 0 0.507 0.411 0.918 0.918 0.918s0.918-0.411 0.918-0.918c0-0.15-0.036-0.292-0.1-0.417l0.002 0.005c-0.154-0.302-0.463-0.506-0.82-0.506-0.15 0-0.292 0.036-0.417 0.1l0.005-0.002z"></path>
<path fill="#0033ad" d="M15.938 6.564c0.009 0 0.020 0.001 0.030 0.001 0.344 0 0.627-0.267 0.651-0.605l0-0.002c0.001-0.012 0.001-0.026 0.001-0.040 0-0.356-0.289-0.645-0.645-0.645-0.342 0-0.622 0.266-0.644 0.603l-0 0.002c-0.001 0.010-0.001 0.023-0.001 0.035 0 0.345 0.267 0.627 0.605 0.652l0.002 0z"></path>
<path fill="#0033ad" d="M15.932 10.606c0.015 0.001 0.032 0.001 0.050 0.001 0.507 0 0.917-0.411 0.917-0.917s-0.411-0.917-0.917-0.917c-0.489 0-0.889 0.383-0.916 0.866l-0 0.002c-0.001 0.017-0.002 0.036-0.002 0.055 0 0.488 0.384 0.887 0.866 0.91l0.002 0z"></path>
<path fill="#0033ad" d="M10.956 19.989c0.302-0.154 0.506-0.463 0.506-0.82 0-0.507-0.411-0.918-0.918-0.918s-0.918 0.411-0.918 0.918c0 0.15 0.036 0.292 0.1 0.417l-0.002-0.005c0.154 0.302 0.463 0.506 0.82 0.506 0.15 0 0.292-0.036 0.417-0.1l-0.005 0.002z"></path>
<path fill="#0033ad" d="M16.526 11.949c-0.16 0.241-0.256 0.538-0.256 0.857 0 0.863 0.7 1.563 1.563 1.563s1.563-0.7 1.563-1.563c0-0.863-0.7-1.563-1.563-1.563-0 0-0 0-0.001 0h0c-0 0-0.001 0-0.002 0-0.543 0-1.022 0.278-1.301 0.7l-0.004 0.006z"></path>
<path fill="#0033ad" d="M19.243 18.485c-0.263-0.514-0.789-0.86-1.396-0.86-0.863 0-1.563 0.7-1.563 1.563s0.7 1.563 1.563 1.563c0.256 0 0.498-0.062 0.711-0.171l-0.009 0.004c0.516-0.26 0.863-0.786 0.863-1.393 0-0.253-0.060-0.491-0.167-0.702l0.004 0.009c-0.001-0.006-0.001-0.006-0.007-0.012z"></path>
<path fill="#0033ad" d="M21.973 18.374c-0.141-0.094-0.315-0.149-0.501-0.149-0.506 0-0.917 0.41-0.917 0.917s0.41 0.917 0.917 0.917c0.32 0 0.601-0.164 0.765-0.412l0.002-0.003c0.095-0.142 0.151-0.316 0.151-0.503 0-0.32-0.165-0.601-0.414-0.764l-0.003-0.002z"></path>
<path fill="#0033ad" d="M24.969 16.028c0.001-0.013 0.001-0.028 0.001-0.043 0-0.431-0.35-0.781-0.781-0.781s-0.781 0.35-0.781 0.781c0 0.416 0.325 0.756 0.736 0.78l0.002 0c0.012 0.001 0.025 0.001 0.039 0.001 0.417 0 0.758-0.325 0.784-0.735l0-0.002z"></path>
<path fill="#0033ad" d="M27.129 15.471c-0.008-0.001-0.018-0.001-0.028-0.001-0.279 0-0.505 0.226-0.505 0.505s0.226 0.505 0.505 0.505c0.269 0 0.489-0.211 0.504-0.476l0-0.001c0-0.007 0.001-0.016 0.001-0.024 0-0.27-0.21-0.491-0.476-0.508l-0.002-0z"></path>
<path fill="#0033ad" d="M25.092 20.484c-0.099-0.066-0.222-0.105-0.353-0.105-0.356 0-0.644 0.288-0.644 0.644s0.288 0.644 0.644 0.644c0.224 0 0.422-0.115 0.537-0.289l0.002-0.002c0.067-0.099 0.106-0.222 0.106-0.354 0-0.224-0.115-0.422-0.29-0.536l-0.002-0.002z"></path>
<path fill="#0033ad" d="M10.745 25.201c-0.078-0.052-0.175-0.084-0.278-0.084-0.279 0-0.505 0.226-0.505 0.505s0.226 0.505 0.505 0.505c0.175 0 0.329-0.089 0.42-0.224l0.001-0.002c0.055-0.079 0.087-0.176 0.087-0.281 0-0.175-0.091-0.329-0.228-0.418l-0.002-0.001z"></path>
<path fill="#0033ad" d="M21.342 25.151c-0.166 0.085-0.278 0.256-0.278 0.452 0 0.28 0.227 0.507 0.507 0.507 0.084 0 0.162-0.020 0.232-0.056l-0.003 0.001c0.166-0.085 0.278-0.256 0.278-0.452 0-0.28-0.227-0.507-0.507-0.507-0.084 0-0.162 0.020-0.232 0.056l0.003-0.001z"></path>
<path fill="#0033ad" d="M15.474 20.051c0.16-0.242 0.256-0.538 0.256-0.857 0-0.864-0.701-1.565-1.565-1.565s-1.565 0.701-1.565 1.565c0 0.545 0.279 1.025 0.702 1.305l0.006 0.004c0.241 0.159 0.537 0.254 0.856 0.254 0.545 0 1.026-0.278 1.307-0.7l0.004-0.006z"></path>
<path fill="#0033ad" d="M12.348 22.446c-0.121-0.081-0.27-0.129-0.43-0.129-0.432 0-0.782 0.35-0.782 0.782s0.35 0.782 0.782 0.782c0.272 0 0.511-0.139 0.651-0.349l0.002-0.003c0.082-0.121 0.132-0.271 0.132-0.432 0-0.272-0.14-0.511-0.352-0.649l-0.003-0.002z"></path>
<path fill="#0033ad" d="M15.994 25.436c-0.011-0.001-0.024-0.001-0.037-0.001-0.356 0-0.645 0.289-0.645 0.645s0.289 0.645 0.645 0.645c0.341 0 0.62-0.264 0.643-0.599l0-0.002c0.001-0.011 0.001-0.024 0.001-0.037 0-0.345-0.267-0.627-0.606-0.651l-0.002-0z"></path>
<path fill="#0033ad" d="M16 21.394c-0.015-0.001-0.032-0.001-0.050-0.001-0.507 0-0.917 0.411-0.917 0.917s0.411 0.917 0.917 0.917c0.489 0 0.889-0.383 0.916-0.866l0-0.002c0.001-0.017 0.002-0.036 0.002-0.055 0-0.488-0.384-0.887-0.866-0.91l-0.002-0z"></path>
<path fill="#0033ad" d="M19.757 22.384c-0.254 0.133-0.424 0.394-0.424 0.695 0 0.432 0.35 0.782 0.782 0.782s0.782-0.35 0.782-0.782c0-0.127-0.030-0.247-0.084-0.353l0.002 0.004c-0.131-0.259-0.395-0.434-0.7-0.434-0.131 0-0.254 0.032-0.363 0.089l0.004-0.002z"></path>
</svg>
