<!-- Generated by IcoMoon.io -->
<svg version="1.1" xmlns="http://www.w3.org/2000/svg" width="27" height="32" viewBox="0 0 27 32">
<title>discord-2</title>
<path d="M17.614 15.245c0 0.922-0.68 1.677-1.541 1.677-0.846 0-1.541-0.756-1.541-1.677s0.68-1.677 1.541-1.677c0.861 0 1.541 0.756 1.541 1.677zM10.557 13.567c-0.861 0-1.541 0.756-1.541 1.677s0.695 1.677 1.541 1.677c0.861 0 1.541-0.756 1.541-1.677 0.015-0.922-0.68-1.677-1.541-1.677zM26.515 4.002v27.109c-3.807-3.364-2.589-2.251-7.012-6.362l0.801 2.795h-17.136c-1.708 0-3.098-1.39-3.098-3.113v-20.43c0-1.723 1.39-3.113 3.098-3.113h20.249c1.708 0 3.098 1.39 3.098 3.113zM22.208 18.327c0-4.866-2.176-8.81-2.176-8.81-2.176-1.632-4.246-1.587-4.246-1.587l-0.212 0.242c2.569 0.786 3.763 1.919 3.763 1.919-3.589-1.967-7.806-1.968-11.288-0.438-0.559 0.257-0.892 0.438-0.892 0.438s1.254-1.194 3.974-1.98l-0.151-0.181c0 0-2.070-0.045-4.246 1.587 0 0-2.176 3.944-2.176 8.81 0 0 1.269 2.191 4.609 2.297 0 0 0.559-0.68 1.012-1.254-1.919-0.574-2.644-1.783-2.644-1.783 0.222 0.156 0.589 0.357 0.62 0.378 2.551 1.428 6.174 1.896 9.429 0.529 0.529-0.197 1.118-0.484 1.738-0.892 0 0-0.756 1.239-2.735 1.798 0.453 0.574 0.997 1.224 0.997 1.224 3.339-0.106 4.624-2.297 4.624-2.297z"></path>
</svg>
