<!-- Generated by IcoMoon.io -->
<svg version="1.1" xmlns="http://www.w3.org/2000/svg" width="32" height="32" viewBox="0 0 32 32">
<title>discord</title>
<path opacity="0.9" fill="#000" d="M20.677 20.523c1.492 0 2.67-1.309 2.67-2.906s-1.178-2.906-2.67-2.906c-1.492 0-2.67 1.309-2.67 2.906s1.204 2.906 2.67 2.906zM27.536 7.694c0 0 3.77 6.833 3.77 15.263 0 0-2.225 3.796-8.011 3.979 0 0-0.943-1.126-1.728-2.121 3.43-0.969 4.739-3.115 4.739-3.115-1.073 0.707-2.094 1.204-3.011 1.545-5.641 2.369-11.918 1.558-16.336-0.916-0.013-0.009-0.060-0.036-0.129-0.076-0.217-0.125-0.652-0.375-0.944-0.579 0 0 1.257 2.094 4.582 3.089-0.785 0.995-1.754 2.173-1.754 2.173-5.786-0.183-7.985-3.979-7.985-3.979 0-8.43 3.77-15.263 3.77-15.263 3.77-2.827 7.357-2.749 7.357-2.749l0.262 0.314c-4.712 1.361-6.885 3.43-6.885 3.43s0.576-0.314 1.545-0.759c6.032-2.65 13.338-2.649 19.556 0.759 0 0-2.068-1.963-6.519-3.325l0.367-0.419c0 0 3.587-0.079 7.357 2.749zM11.119 14.711c-1.492 0-2.67 1.309-2.67 2.906s1.204 2.906 2.67 2.906c1.492 0 2.67-1.309 2.67-2.906 0.026-1.597-1.178-2.906-2.67-2.906z"></path>
</svg>
