<!-- Generated by IcoMoon.io -->
<svg version="1.1" xmlns="http://www.w3.org/2000/svg" width="32" height="32" viewBox="0 0 32 32">
<title>email</title>
<path opacity="0.9" fill="#000" d="M25.035 26.541h-19.953c-2.824 0-5.082-2.259-5.082-5.082v-12.612c0-2.824 2.259-5.082 5.082-5.082h20.141c2.824 0 5.082 2.259 5.082 5.082v12.612c-0.188 2.824-2.447 5.082-5.271 5.082zM5.082 5.835c-1.694 0-3.2 1.506-3.2 3.2v12.612c0 1.694 1.506 3.2 3.2 3.2h20.141c1.694 0 3.2-1.506 3.2-3.2v-12.612c0-1.694-1.506-3.2-3.2-3.2h-20.141z"></path>
<path opacity="0.9" fill="#000" d="M29.741 10.353l-11.671 6.776c-0.753 0.565-1.882 0.753-3.012 0.753s-2.071-0.188-3.012-0.753l-11.671-6.776 0.941-1.694 11.671 6.776c1.129 0.565 3.012 0.565 3.953 0l11.671-6.776 1.129 1.694z"></path>
<path opacity="0.9" fill="#000" d="M10.2 15.062l-1.458-1.19-8.093 9.916 1.458 1.19 8.093-9.916z"></path>
<path opacity="0.9" fill="#000" d="M29.558 23.83l-8.095-9.915-1.458 1.19 8.095 9.915 1.458-1.19z"></path>
</svg>
