<!-- Generated by IcoMoon.io -->
<svg version="1.1" xmlns="http://www.w3.org/2000/svg" width="32" height="32" viewBox="0 0 32 32">
<title>linkedin</title>
<path d="M7.428 31.477h-6.424v-20.687h6.424v20.687zM4.212 7.968c-2.054 0-3.72-1.701-3.72-3.756 0-0.987 0.392-1.933 1.090-2.631s1.644-1.090 2.631-1.090c0.987 0 1.933 0.392 2.631 1.090s1.090 1.644 1.090 2.631c0 2.054-1.667 3.756-3.72 3.756zM31.471 31.477h-6.41v-10.070c0-2.4-0.048-5.478-3.34-5.478-3.34 0-3.852 2.607-3.852 5.305v10.243h-6.417v-20.687h6.161v2.822h0.090c0.858-1.625 2.953-3.341 6.078-3.341 6.501 0 7.697 4.281 7.697 9.842v11.364h-0.007z"></path>
</svg>
