<!-- Generated by IcoMoon.io -->
<svg version="1.1" xmlns="http://www.w3.org/2000/svg" width="32" height="32" viewBox="0 0 32 32">
<title>livechat</title>
<path fill="#161e25" opacity="0.9" d="M12.986 27.077c-1.701 0-3.080-1.379-3.080-3.080v-11.071c0-1.701 1.379-3.080 3.080-3.080h15.934c1.701 0 3.080 1.379 3.080 3.080v12.31c0 1.017-0.824 1.841-1.841 1.841v0c-1.017 0-1.841 0.824-1.841 1.841v2.356c0 0.401-0.325 0.726-0.726 0.726v0c-0.193 0-0.378-0.077-0.514-0.213l-3.794-3.804c-0.578-0.58-1.363-0.905-2.181-0.905h-8.116zM18.097 15.72c0 1.031-0.833 1.867-1.861 1.867s-1.861-0.836-1.861-1.867c0-1.031 0.833-1.867 1.861-1.867s1.861 0.836 1.861 1.867zM27.404 15.72c0 1.031-0.833 1.867-1.861 1.867s-1.861-0.836-1.861-1.867c0-1.031 0.833-1.867 1.861-1.867s1.861 0.836 1.861 1.867zM13.63 21.693c-0.206 0-0.372 0.167-0.372 0.373v1.12c0 0.206 0.167 0.373 0.372 0.373h3.909c0.206 0 0.372-0.167 0.372-0.373v-1.12c0-0.206-0.167-0.373-0.372-0.373h-3.909zM18.469 22.066c0-0.206 0.167-0.373 0.372-0.373h3.909c0.206 0 0.372 0.167 0.372 0.373v1.12c0 0.206-0.167 0.373-0.372 0.373h-3.909c-0.206 0-0.372-0.167-0.372-0.373v-1.12zM24.054 21.693c-0.206 0-0.372 0.167-0.372 0.373v1.12c0 0.206 0.167 0.373 0.372 0.373h3.909c0.206 0 0.372-0.167 0.372-0.373v-1.12c0-0.206-0.167-0.373-0.372-0.373h-3.909z"></path>
<path fill="#161e25" opacity="0.18000000000000002" d="M22.093 3.080c0-1.701-1.379-3.080-3.080-3.080h-15.934c-1.701 0-3.080 1.379-3.080 3.080v11.071c0 1.701 1.379 3.080 3.080 3.080h4.498c0.56 0 1.014-0.454 1.014-1.014v-3.157c0-2.455 1.99-4.444 4.444-4.444h8.044c0.56 0 1.014-0.454 1.014-1.014v-4.522z"></path>
</svg>
