<!-- Generated by IcoMoon.io -->
<svg version="1.1" xmlns="http://www.w3.org/2000/svg" width="32" height="32" viewBox="0 0 32 32">
<title>metamask</title>
<path fill="#e2761b" d="M30.406 1.167l-12.486 9.274 2.309-5.471z"></path>
<path fill="#e4761b" d="M1.581 1.167l12.386 9.362-2.196-5.559z"></path>
<path fill="#e4761b" d="M25.914 22.664l-3.325 5.095 7.115 1.958 2.045-6.94z"></path>
<path fill="#e4761b" d="M0.264 22.776l2.033 6.94 7.115-1.958-3.325-5.095z"></path>
<path fill="#e4761b" d="M9.010 14.055l-1.983 2.999 7.065 0.314-0.251-7.592z"></path>
<path fill="#e4761b" d="M22.977 14.055l-4.894-4.367-0.163 7.68 7.053-0.314z"></path>
<path fill="#e4761b" d="M9.412 27.758l4.242-2.071-3.664-2.861z"></path>
<path fill="#e4761b" d="M18.334 25.688l4.254 2.071-0.59-4.932z"></path>
<path fill="#d7c1b3" d="M22.588 27.758l-4.254-2.071 0.339 2.773-0.038 1.167z"></path>
<path fill="#d7c1b3" d="M9.412 27.758l3.953 1.87-0.025-1.167 0.314-2.773z"></path>
<path fill="#233447" d="M13.427 20.995l-3.539-1.042 2.497-1.142z"></path>
<path fill="#233447" d="M18.56 20.995l1.042-2.184 2.51 1.142z"></path>
<path fill="#cd6116" d="M9.412 27.758l0.602-5.095-3.928 0.113z"></path>
<path fill="#cd6116" d="M21.986 22.664l0.602 5.095 3.326-4.982z"></path>
<path fill="#cd6116" d="M24.973 17.054l-7.053 0.314 0.653 3.627 1.042-2.184 2.51 1.142z"></path>
<path fill="#cd6116" d="M9.889 19.953l2.51-1.142 1.029 2.184 0.665-3.627-7.065-0.314z"></path>
<path fill="#e4751f" d="M7.027 17.054l2.962 5.773-0.1-2.874z"></path>
<path fill="#e4751f" d="M22.124 19.953l-0.125 2.874 2.974-5.773z"></path>
<path fill="#e4751f" d="M14.093 17.368l-0.665 3.627 0.828 4.279 0.188-5.634z"></path>
<path fill="#e4751f" d="M17.92 17.368l-0.339 2.259 0.151 5.647 0.841-4.279z"></path>
<path fill="#f6851b" d="M18.573 20.995l-0.841 4.279 0.602 0.414 3.664-2.861 0.125-2.874z"></path>
<path fill="#f6851b" d="M9.889 19.953l0.1 2.874 3.664 2.861 0.602-0.414-0.828-4.279z"></path>
<path fill="#c0ad9e" d="M18.635 29.628l0.038-1.167-0.314-0.276h-4.731l-0.289 0.276 0.025 1.167-3.953-1.87 1.38 1.129 2.798 1.945h4.806l2.811-1.945 1.38-1.129z"></path>
<path fill="#161616" d="M18.334 25.688l-0.602-0.414h-3.476l-0.602 0.414-0.314 2.773 0.289-0.276h4.731l0.314 0.276z"></path>
<path fill="#763d16" d="M30.933 11.043l1.067-5.12-1.594-4.756-12.072 8.96 4.643 3.928 6.563 1.92 1.456-1.694-0.627-0.452 1.004-0.916-0.778-0.602 1.004-0.765z"></path>
<path fill="#763d16" d="M0 5.923l1.067 5.12-0.678 0.502 1.004 0.765-0.765 0.602 1.004 0.916-0.627 0.452 1.443 1.694 6.563-1.92 4.643-3.928-12.072-8.96z"></path>
<path fill="#f6851b" d="M29.54 15.975l-6.563-1.92 1.995 2.999-2.974 5.773 3.915-0.050h5.835z"></path>
<path fill="#f6851b" d="M9.010 14.055l-6.563 1.92-2.184 6.802h5.823l3.903 0.050-2.962-5.773z"></path>
<path fill="#f6851b" d="M17.92 17.368l0.414-7.241 1.907-5.158h-8.471l1.882 5.158 0.439 7.241 0.151 2.284 0.013 5.622h3.476l0.025-5.622z"></path>
</svg>
