<!-- Generated by IcoMoon.io -->
<svg version="1.1" xmlns="http://www.w3.org/2000/svg" width="32" height="32" viewBox="0 0 32 32">
<title>moonpay</title>
<path d="M26.327 10.32c0.946 0 1.871-0.281 2.658-0.806s1.4-1.273 1.762-2.147c0.362-0.874 0.457-1.836 0.272-2.764s-0.64-1.78-1.309-2.449c-0.669-0.669-1.521-1.125-2.449-1.309s-1.89-0.090-2.764 0.272c-0.874 0.362-1.621 0.975-2.147 1.762s-0.806 1.711-0.806 2.658c0 0.628 0.124 1.25 0.364 1.831s0.593 1.108 1.037 1.552c0.444 0.444 0.971 0.797 1.552 1.037s1.202 0.364 1.831 0.364zM11.66 31.864c-2.306 0-4.56-0.684-6.478-1.965s-3.412-3.102-4.294-5.233c-0.882-2.131-1.113-4.475-0.663-6.737s1.56-4.339 3.191-5.97 3.708-2.741 5.97-3.191c2.262-0.45 4.606-0.219 6.737 0.664s3.952 2.377 5.233 4.294c1.281 1.917 1.965 4.172 1.965 6.478 0 1.531-0.302 3.048-0.887 4.462s-1.445 2.7-2.528 3.783c-1.083 1.083-2.368 1.941-3.783 2.527s-2.931 0.888-4.462 0.888z"></path>
</svg>
