<!-- Generated by IcoMoon.io -->
<svg version="1.1" xmlns="http://www.w3.org/2000/svg" width="32" height="32" viewBox="0 0 32 32">
<title>moonpay-color</title>
<path fill="#7d00ff" d="M26.633 9.678c0.957 0 1.893-0.284 2.688-0.816s1.416-1.287 1.782-2.172c0.366-0.884 0.462-1.857 0.275-2.796s-0.648-1.801-1.324-2.478-1.539-1.138-2.478-1.324c-0.939-0.187-1.912-0.091-2.796 0.275s-1.64 0.987-2.172 1.782-0.816 1.731-0.816 2.688c0 0.636 0.125 1.265 0.368 1.852s0.6 1.121 1.049 1.57c0.449 0.449 0.983 0.806 1.57 1.049s1.216 0.368 1.852 0.368zM11.795 31.472c-2.333 0-4.613-0.692-6.553-1.988s-3.452-3.138-4.344-5.294-1.126-4.527-0.671-6.815c0.455-2.288 1.579-4.39 3.228-6.039s3.751-2.773 6.039-3.228c2.288-0.455 4.66-0.222 6.815 0.671s3.997 2.405 5.294 4.344c1.296 1.94 1.988 4.22 1.988 6.553 0 1.549-0.305 3.083-0.898 4.514s-1.462 2.731-2.557 3.827c-1.095 1.095-2.396 1.964-3.827 2.557s-2.965 0.898-4.514 0.898z"></path>
</svg>
