<!-- Generated by IcoMoon.io -->
<svg version="1.1" xmlns="http://www.w3.org/2000/svg" width="32" height="32" viewBox="0 0 32 32">
<title>nem</title>
<path fill="#000" d="M16.122 29.763l-0.159-0.079c-6.193-3.626-10.878-9.608-12.784-16.754-0.304-1.125-0.529-2.276-0.688-3.441-0.146-1.165-0.225-2.342-0.238-3.52 0-0.198-0.027-0.172 0.159-0.265 2.329-1.323 4.791-2.289 7.398-2.898 0.966-0.225 1.932-0.397 2.911-0.516 1.35-0.159 2.7-0.225 4.063-0.198 0.767 0.013 1.522 0.066 2.276 0.146 3.798 0.41 7.358 1.548 10.693 3.414 0.053 0.027 0.093 0.053 0.146 0.079s0.079 0.066 0.079 0.132v0.198c-0.013 0.688-0.040 1.363-0.093 2.051-0.079 0.979-0.212 1.945-0.397 2.911-0.397 2.078-1.019 4.076-1.879 5.995-1.363 3.057-3.229 5.783-5.585 8.165-1.694 1.72-3.586 3.203-5.677 4.433-0.079 0.053-0.146 0.093-0.225 0.146zM3.523 6.644v0.159c0 0.966 0.066 1.945 0.185 2.898 0.106 0.873 0.252 1.734 0.45 2.594 0.040 0.146 0.079 0.291 0.146 0.437 1.191 2.528 3.944 3.877 6.67 3.255 2.078-0.477 3.772-2.078 4.341-4.129 0.159-0.569 0.212-1.151 0.238-1.734 0.013-0.384 0.053-0.767 0.119-1.151 0.45-2.329 1.998-4.248 4.182-5.161 0.119-0.053 0.252-0.093 0.371-0.146 0.013-0.013 0.040-0.013 0.040-0.040-0.344-0.119-2.395-0.331-3.626-0.357-2.647-0.053-5.241 0.291-7.768 1.059-1.879 0.569-3.652 1.337-5.346 2.316zM23.043 22.498c0.066-0.040 0.106-0.093 0.132-0.132 0.529-0.662 1.032-1.35 1.495-2.065 1.654-2.567 2.819-5.333 3.467-8.324 0.225-1.019 0.371-2.038 0.463-3.070 0.066-0.701 0.093-1.403 0.093-2.117 0-0.053 0-0.093-0.013-0.146l-0.198-0.119c-0.542-0.304-1.098-0.596-1.654-0.86-0.821-0.384-1.641-0.728-2.501-1.006-1.046-0.331-2.104-0.371-3.163-0.106-3.030 0.728-4.976 3.705-4.394 6.762 0.317 1.694 1.231 3.017 2.686 3.944 0.093 0.066 0.198 0.119 0.291 0.185 1.072 0.648 1.906 1.535 2.501 2.634 0.635 1.151 0.913 2.395 0.834 3.705 0.013 0.225-0.013 0.463-0.040 0.715zM16.122 28.413c0.053-0.027 0.119-0.066 0.172-0.106 1.667-0.979 3.203-2.144 4.605-3.467 0.093-0.079 0.159-0.185 0.212-0.291 0.093-0.172 0.185-0.357 0.265-0.529 0.662-1.376 0.807-2.805 0.371-4.288-0.86-2.858-3.613-4.499-6.379-4.155-0.794 0.093-1.522 0.344-2.21 0.741-1.31 0.741-2.713 1.046-4.222 0.9-0.741-0.066-1.442-0.265-2.117-0.556-0.529-0.238-1.032-0.529-1.482-0.887-0.027-0.027-0.066-0.040-0.132-0.079 0.013 0.066 0.027 0.106 0.040 0.132 0.596 1.509 1.323 2.938 2.184 4.301 0.94 1.469 2.011 2.832 3.229 4.076s2.554 2.355 3.997 3.322c0.662 0.423 1.284 0.807 1.469 0.887z"></path>
<path fill="#f7a800" d="M3.523 6.644c1.694-0.979 3.467-1.747 5.333-2.303 2.541-0.754 5.121-1.112 7.768-1.059 1.231 0.027 3.282 0.225 3.626 0.357 0.013 0.027-0.013 0.040-0.040 0.040-0.119 0.053-0.252 0.093-0.371 0.146-2.184 0.913-3.732 2.832-4.182 5.161-0.066 0.384-0.106 0.767-0.119 1.151-0.013 0.582-0.066 1.165-0.238 1.734-0.582 2.051-2.263 3.652-4.341 4.129-2.726 0.622-5.479-0.728-6.67-3.255-0.066-0.146-0.119-0.291-0.146-0.437-0.198-0.86-0.344-1.72-0.45-2.594-0.119-0.966-0.185-1.932-0.185-2.898 0.013-0.066 0.013-0.106 0.013-0.172z"></path>
<path fill="#67b2e8" d="M23.043 22.498c0.027-0.252 0.053-0.477 0.066-0.715 0.066-1.31-0.212-2.554-0.834-3.705-0.596-1.098-1.429-1.972-2.501-2.634-0.093-0.066-0.198-0.119-0.291-0.185-1.469-0.926-2.369-2.236-2.686-3.944-0.569-3.070 1.363-6.035 4.394-6.762 1.072-0.252 2.117-0.225 3.163 0.106 0.86 0.265 1.681 0.622 2.501 1.006 0.569 0.265 1.112 0.556 1.654 0.86 0.066 0.040 0.119 0.066 0.198 0.119 0 0.053 0.013 0.093 0.013 0.146 0 0.702-0.040 1.416-0.093 2.117-0.093 1.032-0.252 2.065-0.463 3.070-0.648 2.991-1.8 5.757-3.467 8.324-0.463 0.715-0.966 1.403-1.495 2.065-0.053 0.040-0.079 0.093-0.159 0.132z"></path>
<path fill="#00c4b3" d="M16.122 28.413c-0.198-0.079-0.807-0.45-1.456-0.887-1.442-0.966-2.779-2.078-3.997-3.322s-2.303-2.607-3.229-4.076c-0.873-1.363-1.601-2.792-2.184-4.301-0.013-0.040-0.027-0.066-0.040-0.132 0.066 0.040 0.093 0.053 0.132 0.079 0.463 0.357 0.953 0.662 1.482 0.887 0.675 0.291 1.376 0.49 2.117 0.556 1.495 0.146 2.898-0.159 4.222-0.9 0.688-0.384 1.429-0.635 2.21-0.741 2.766-0.344 5.518 1.297 6.379 4.155 0.437 1.469 0.304 2.898-0.371 4.288-0.093 0.185-0.172 0.357-0.265 0.529-0.053 0.106-0.119 0.212-0.212 0.291-1.403 1.323-2.938 2.488-4.605 3.467-0.066 0.040-0.132 0.079-0.185 0.106z"></path>
</svg>
