<!-- Generated by IcoMoon.io -->
<svg version="1.1" xmlns="http://www.w3.org/2000/svg" width="32" height="32" viewBox="0 0 32 32">
<title>ondefy</title>
<path d="M16 0c-1.281 0-2.526 0.151-3.72 0.435v0c-7.043 1.677-12.281 8.009-12.281 15.565 0 7.557 5.238 13.889 12.281 15.566v-0c1.194 0.284 2.439 0.434 3.719 0.434 8.836 0 16-7.164 16-16.001s-7.163-15.999-16-15.999zM12.281 31.357v-4.71c-5.833-0.056-10.542-4.802-10.542-10.647s4.709-10.59 10.542-10.646v-4.71c6.644 1.946 11.496 8.085 11.496 15.356s-4.852 13.412-11.496 15.358z"></path>
</svg>
