<!-- Generated by IcoMoon.io -->
<svg version="1.1" xmlns="http://www.w3.org/2000/svg" width="32" height="32" viewBox="0 0 32 32">
<title>optimistic-ethereum</title>
<path fill="#ff0420" d="M32 16c0 8.837-7.163 16-16 16s-16-7.163-16-16c0-8.837 7.163-16 16-16s16 7.163 16 16z"></path>
<path fill="#fff" d="M11.331 20.243c-0.049 0.002-0.106 0.003-0.164 0.003-0.814 0-1.568-0.253-2.19-0.684l0.013 0.008c-0.551-0.424-0.903-1.084-0.903-1.826 0-0.042 0.001-0.083 0.003-0.124l-0 0.006c0.004-0.232 0.026-0.456 0.064-0.674l-0.004 0.026q0.156-0.866 0.444-2.077 0.816-3.301 4.213-3.301c0.020-0 0.044-0.001 0.068-0.001 0.573 0 1.119 0.115 1.616 0.323l-0.028-0.010c0.476 0.19 0.868 0.505 1.147 0.904l0.005 0.008c0.263 0.385 0.421 0.86 0.421 1.372 0 0.024-0 0.048-0.001 0.072l0-0.004c-0.005 0.228-0.026 0.448-0.064 0.662l0.004-0.026q-0.18 1.068-0.432 2.077-0.42 1.644-1.452 2.461-1.031 0.803-2.76 0.803zM11.499 18.515c0.014 0 0.031 0.001 0.047 0.001 0.417 0 0.8-0.15 1.096-0.399l-0.003 0.002c0.343-0.312 0.587-0.728 0.682-1.198l0.002-0.014q0.276-1.128 0.42-1.969c0.031-0.154 0.048-0.331 0.048-0.512 0-0.002 0-0.003 0-0.005v0q0-1.092-1.14-1.092c-0.012-0-0.027-0.001-0.042-0.001-0.423 0-0.811 0.15-1.113 0.399l0.003-0.002c-0.337 0.315-0.576 0.73-0.67 1.198l-0.002 0.014q-0.216 0.804-0.432 1.969c-0.031 0.149-0.048 0.319-0.048 0.494 0 0.003 0 0.007 0 0.010v-0.001q0 1.104 1.152 1.104z"></path>
<path fill="#fff" d="M16.589 20.123c-0.004 0-0.010 0-0.015 0-0.075 0-0.142-0.032-0.189-0.084l-0-0c-0.027-0.043-0.043-0.096-0.043-0.152 0-0.023 0.003-0.045 0.008-0.066l-0 0.002 1.657-7.802c0.015-0.089 0.063-0.164 0.13-0.216l0.001-0.001c0.062-0.051 0.141-0.083 0.228-0.084h3.193c0.054-0.003 0.118-0.004 0.182-0.004 0.724 0 1.399 0.207 1.97 0.566l-0.015-0.009c0.496 0.328 0.818 0.883 0.818 1.514 0 0.029-0.001 0.058-0.002 0.087l0-0.004c-0.001 0.222-0.027 0.437-0.076 0.644l0.004-0.019c-0.14 0.834-0.581 1.546-1.205 2.035l-0.007 0.005q-0.9 0.66-2.473 0.66h-1.62l-0.552 2.629c-0.016 0.089-0.063 0.164-0.13 0.216l-0.001 0.001c-0.061 0.051-0.141 0.082-0.228 0.084h-0zM20.838 15.538c0.009 0 0.021 0 0.032 0 0.318 0 0.611-0.104 0.849-0.279l-0.004 0.003c0.256-0.189 0.438-0.465 0.503-0.784l0.001-0.008c0.021-0.107 0.034-0.232 0.036-0.359l0-0.001c0.001-0.014 0.002-0.030 0.002-0.046 0-0.189-0.079-0.36-0.206-0.482l-0-0c-0.165-0.123-0.373-0.197-0.598-0.197-0.035 0-0.069 0.002-0.103 0.005l0.004-0h-1.44l-0.456 2.149z"></path>
</svg>
