<!-- Generated by IcoMoon.io -->
<svg version="1.1" xmlns="http://www.w3.org/2000/svg" width="32" height="32" viewBox="0 0 32 32">
<title>polkadot</title>
<path fill="#fff" d="M32 16c0 8.837-7.163 16-16 16s-16-7.163-16-16c0-8.837 7.163-16 16-16s16 7.163 16 16z"></path>
<path fill="#1e1e1e" d="M16.124 3.673c-5.15 0.021-9.318 4.19-9.34 9.338v0.002c0 1.085 0.18 2.129 0.513 3.101l-0.020-0.068c0.193 0.516 0.681 0.876 1.254 0.876 0.139 0 0.272-0.021 0.398-0.060l-0.009 0.003c0.504-0.197 0.854-0.678 0.854-1.242 0-0.141-0.022-0.277-0.063-0.405l0.003 0.009c-0.234-0.625-0.37-1.348-0.37-2.103 0-0.098 0.002-0.195 0.007-0.292l-0.001 0.014c0.113-3.633 3.085-6.535 6.734-6.535 3.721 0 6.738 3.016 6.738 6.737 0 3.577-2.788 6.503-6.309 6.724l-0.019 0.001s-1.311 0.080-1.963 0.16c-0.283 0.041-0.525 0.090-0.761 0.152l0.047-0.011c-0.016 0.016-0.037 0.026-0.062 0.026s-0.045-0.010-0.061-0.025v0l-0.001-0.001c-0.011-0.014-0.018-0.032-0.018-0.052s0.007-0.038 0.018-0.052l-0 0 0.203-1.107 1.231-5.537c0.018-0.081 0.028-0.173 0.028-0.268 0-0.707-0.573-1.28-1.28-1.28-0.612 0-1.124 0.43-1.25 1.004l-0.002 0.008s-2.929 13.555-2.929 13.678c-0.024 0.091-0.038 0.196-0.038 0.304 0 0.572 0.39 1.053 0.919 1.191l0.009 0.002c0.006 0.002 0.013 0.004 0.021 0.005l0.001 0h0.068c0.092 0.025 0.199 0.039 0.308 0.039 0.57 0 1.050-0.388 1.189-0.914l0.002-0.009c0.003-0.009 0.005-0.020 0.008-0.031l0-0.002c-0.001-0.009-0.001-0.020-0.001-0.031s0.001-0.021 0.002-0.032l-0 0.001c0.037-0.16 0.406-1.962 0.406-1.962 0.286-1.358 1.371-2.398 2.731-2.613l0.019-0.002c0.283-0.043 1.471-0.123 1.471-0.123 4.743-0.484 8.412-4.458 8.412-9.288 0-5.071-4.044-9.197-9.083-9.33l-0.012-0z"></path>
<path fill="#e6007a" d="M16.69 25.208c-0.095-0.021-0.205-0.033-0.317-0.033-0.747 0-1.372 0.527-1.522 1.229l-0.002 0.010c-0.002 0.008-0.003 0.016-0.005 0.024-0.023 0.099-0.036 0.213-0.036 0.33 0 0.739 0.518 1.358 1.21 1.513l0.010 0.002c0 0 0-0 0-0s0.002 0 0.003 0.001v0h0.043c0.108 0.027 0.231 0.043 0.358 0.043 0.715 0 1.316-0.493 1.48-1.157l0.002-0.010c0.002-0.006 0.003-0.012 0.005-0.019v-0.086c0.015-0.082 0.023-0.177 0.023-0.273 0-0.764-0.531-1.404-1.244-1.571l-0.011-0.002z"></path>
</svg>
