<!-- Generated by IcoMoon.io -->
<svg version="1.1" xmlns="http://www.w3.org/2000/svg" width="41" height="32" viewBox="0 0 41 32">
<title>solana</title>
<path d="M10.51 22.054c0.177-0.177 0.42-0.28 0.679-0.28h23.42c0.428 0 0.642 0.517 0.34 0.819l-4.627 4.627c-0.177 0.177-0.42 0.28-0.679 0.28h-23.42c-0.428 0-0.642-0.517-0.34-0.819l4.627-4.627z"></path>
<path d="M10.51 4.78c0.185-0.177 0.428-0.28 0.679-0.28h23.42c0.428 0 0.642 0.517 0.34 0.819l-4.627 4.627c-0.177 0.177-0.42 0.28-0.679 0.28h-23.42c-0.428 0-0.642-0.517-0.34-0.819l4.627-4.627z"></path>
<path d="M30.323 13.362c-0.177-0.177-0.42-0.28-0.679-0.28h-23.42c-0.428 0-0.642 0.517-0.34 0.819l4.627 4.627c0.177 0.177 0.42 0.28 0.679 0.28h23.42c0.428 0 0.642-0.517 0.34-0.819l-4.627-4.627z"></path>
</svg>
