<!-- Generated by IcoMoon.io -->
<svg version="1.1" xmlns="http://www.w3.org/2000/svg" width="32" height="32" viewBox="0 0 32 32">
<title>stellar</title>
<path fill="#fff" d="M32 16c0 8.837-7.163 16-16 16s-16-7.163-16-16c0-8.837 7.163-16 16-16s16 7.163 16 16z"></path>
<path fill="#000" d="M24.284 8.791l-16.201 8.252c-0.043-0.311-0.067-0.67-0.067-1.035 0-4.415 3.579-7.994 7.994-7.994 1.432 0 2.776 0.376 3.938 1.036l-0.040-0.021 1.828-0.932c-1.588-1.164-3.581-1.863-5.737-1.863-5.393 0-9.766 4.372-9.766 9.766 0 0 0 0.001 0 0.001v-0q0 0.373 0.028 0.743c0.003 0.040 0.005 0.087 0.005 0.134 0 0.687-0.39 1.282-0.96 1.578l-0.010 0.005-0.839 0.428v1.995l23.082-11.762v-1.994z"></path>
<path fill="#000" d="M27.541 11.119l-23.082 11.756v1.993l19.462-9.917c0.043 0.315 0.068 0.68 0.068 1.051v0c-0.003 4.413-3.581 7.99-7.995 7.99-1.437 0-2.784-0.379-3.95-1.042l0.039 0.021-0.098 0.052-1.725 0.879c1.588 1.164 3.581 1.863 5.737 1.863 5.393 0 9.764-4.371 9.766-9.763v-0c0-0.251-0.010-0.502-0.028-0.75-0.003-0.040-0.005-0.087-0.005-0.134 0-0.687 0.389-1.282 0.959-1.578l0.010-0.005 0.84-0.428z"></path>
</svg>
