<!-- Generated by IcoMoon.io -->
<svg version="1.1" xmlns="http://www.w3.org/2000/svg" width="32" height="32" viewBox="0 0 32 32">
<title>transak</title>
<path fill="#000" d="M31.076 16c0 8.326-6.75 15.076-15.076 15.076s-15.076-6.75-15.076-15.076c0-8.326 6.75-15.076 15.076-15.076s15.076 6.75 15.076 15.076z"></path>
<path fill="#fff" d="M25.52 15.079l-4.266-4.266c-0.005-0.005-0.012-0.009-0.017-0.014-0.028-0.027-0.057-0.051-0.086-0.075-0.021-0.017-0.043-0.031-0.065-0.047-0.010-0.007-0.020-0.013-0.031-0.019-0.178-0.117-0.396-0.187-0.631-0.187-0.369 0-0.697 0.173-0.909 0.442l-0.002 0.002-6.622 6.623v-5.897c-0.015-0.634-0.533-1.143-1.169-1.143s-1.154 0.508-1.169 1.141l-0 0.001v5.898l-2.418-2.418c-0.208-0.194-0.489-0.314-0.797-0.314-0.646 0-1.169 0.524-1.169 1.169 0 0.308 0.119 0.589 0.314 0.798l-0.001-0.001 4.413 4.415c0.027 0.027 0.056 0.053 0.086 0.078l0.002 0.002c0.027 0.022 0.057 0.044 0.088 0.065l0.004 0.003c0.149 0.1 0.329 0.167 0.523 0.187l0.005 0h0.005c0.038 0.004 0.075 0.006 0.113 0.006v0c0.006 0 0.012 0 0.017 0 0.031 0 0.062 0 0.095-0.004l0.023-0.003c0.031-0.003 0.060-0.008 0.090-0.013l0.014-0.003c0.033-0.007 0.066-0.015 0.098-0.024l0.005-0.002c0.036-0.011 0.070-0.023 0.105-0.037v0 0c0.055-0.024 0.102-0.047 0.146-0.074l-0.006 0.003 0.026-0.016c0.048-0.030 0.090-0.059 0.129-0.092l-0.002 0.002c0.004-0.003 0.008-0.007 0.011-0.010 0.025-0.021 0.050-0.043 0.073-0.066l6.712-6.708v5.882c0 0.646 0.524 1.169 1.169 1.169s1.169-0.524 1.169-1.169v0-5.897l2.27 2.27c0.215 0.233 0.521 0.378 0.861 0.378 0.646 0 1.17-0.524 1.17-1.17 0-0.34-0.145-0.647-0.377-0.86l-0.001-0.001z"></path>
</svg>
