<!-- Generated by IcoMoon.io -->
<svg version="1.1" xmlns="http://www.w3.org/2000/svg" width="40" height="32" viewBox="0 0 40 32">
<title>twitter</title>
<path d="M38.142 4.485c-1.387 0.606-2.878 1.015-4.443 1.199 1.597-0.943 2.824-2.435 3.401-4.214-1.495 0.873-3.15 1.507-4.913 1.848-1.411-1.48-3.422-2.405-5.647-2.405-4.273 0-7.736 3.41-7.736 7.617 0 0.597 0.068 1.178 0.2 1.736-6.43-0.318-12.13-3.35-15.946-7.959-0.666 1.125-1.048 2.433-1.048 3.829 0 2.643 1.366 4.974 3.442 6.34-1.268-0.040-2.461-0.382-3.504-0.953-0.001 0.032-0.001 0.064-0.001 0.096 0 3.691 2.667 6.769 6.206 7.469-0.649 0.174-1.333 0.267-2.038 0.267-0.499 0-0.983-0.048-1.456-0.137 0.985 3.026 3.841 5.228 7.227 5.29-2.648 2.043-5.983 3.261-9.608 3.261-0.624 0-1.24-0.036-1.845-0.107 3.424 2.161 7.49 3.422 11.859 3.422 14.23 0 22.011-11.607 22.011-21.672 0-0.33-0.008-0.659-0.023-0.985 1.512-1.074 2.823-2.415 3.861-3.943z"></path>
</svg>
