<!-- Generated by IcoMoon.io -->
<svg version="1.1" xmlns="http://www.w3.org/2000/svg" width="32" height="32" viewBox="0 0 32 32">
<title>wallet-connect</title>
<path fill="#3b99fc" d="M7.033 10.376c4.91-4.809 12.872-4.809 17.782 0l0.59 0.575c0.249 0.241 0.249 0.629 0 0.87l-2.020 1.981c-0.124 0.117-0.318 0.117-0.443 0l-0.816-0.8c-3.426-3.356-8.98-3.356-12.406 0l-0.87 0.855c-0.124 0.117-0.319 0.117-0.443 0l-2.028-1.973c-0.249-0.241-0.249-0.629 0-0.87l0.653-0.637zM28.995 14.47l1.802 1.763c0.249 0.241 0.249 0.629 0 0.87l-8.118 7.947c-0.249 0.241-0.645 0.241-0.886 0l-5.756-5.64c-0.062-0.062-0.163-0.062-0.225 0l-5.756 5.64c-0.249 0.241-0.645 0.241-0.886 0l-8.118-7.947c-0.249-0.241-0.249-0.629 0-0.87l1.802-1.763c0.249-0.241 0.645-0.241 0.886 0l5.756 5.64c0.062 0.062 0.163 0.062 0.225 0l5.756-5.64c0.249-0.241 0.645-0.241 0.886 0l5.756 5.64c0.062 0.062 0.163 0.062 0.225 0l5.756-5.64c0.249-0.241 0.645-0.241 0.893 0z"></path>
</svg>
