<!-- Generated by IcoMoon.io -->
<svg version="1.1" xmlns="http://www.w3.org/2000/svg" width="32" height="32" viewBox="0 0 32 32">
<title>xrp</title>
<path fill="#fff" d="M32 16c0 8.837-7.163 16-16 16s-16-7.163-16-16c0-8.837 7.163-16 16-16s16 7.163 16 16z"></path>
<path fill="#23292f" d="M24.154 6.449h3.334l-6.938 6.87c-1.17 1.153-2.777 1.865-4.55 1.865s-3.38-0.712-4.551-1.866l0.001 0.001-6.941-6.87h3.337l5.271 5.218c0.741 0.73 1.758 1.181 2.881 1.181s2.141-0.451 2.882-1.182l-0 0z"></path>
<path fill="#23292f" d="M7.803 25.551h-3.336l6.983-6.912c1.17-1.153 2.777-1.865 4.55-1.865s3.381 0.712 4.551 1.866l-0.001-0.001 6.983 6.913h-3.334l-5.316-5.261c-0.741-0.73-1.758-1.181-2.881-1.181s-2.141 0.451-2.882 1.182l0-0z"></path>
</svg>
